<svg width="451" height="234" version="1.1" viewBox="0 0 451 234" xmlns="http://www.w3.org/2000/svg"><defs><clipPath id="b"><path d="m2063 1291c.71.21 1.64.49 2.98.9 5.67 1.66 9.49 1.88 11.1 1.88h.82s-7.55-2.38-8.25-3.74c-.15-.46-.08-.68.36-.68.78 0 2.74.74 6.29 2.04 5.76 1.99 38.2 6.54 49.9 7.02 6.6.03 9.48.27 11.2.28h.27c1.22-.01 1.91-.14 3.15-.57 2.75-.94-.42-1.3 2.39-1.3.39 0 .95 0 1.66.04 4.87 0 6.98.19 8.85.19.26 0 .52 0 .78-.01 2.14-.09 3.1-1.24-2.65-1.76-5.98-.6-6.21-1.51-6.67-2.63-.22-1.11-2.57-2.37-7.3-3.93-4.88-1.62-7.51-2.02-6.01-3.29 1.65-1.3-1.11-2.24-2.64-3.27-1.72-1-.3-2.58-9.29-3.05-9.08-.59-14.8-1.2-16.2-3.13-1.57-1.97-5.4-1.01-9.93-2.28-4.3-1.24-13.1-9.57-15.9-11-1.61-.81-4.31-2-6.86-2-2.01 0-3.9.75-5.02 3.01-2.42 4.75-3.54 8.49 2.07 10.9 5.66 2.33 8.63 2.39 5.2 4.28-3.24 1.74-3.16.21-1.59 2.67 1.29 1.9 2.12 3.15-.21 3.15-.62 0-1.48-.06-2.58-.27-3.83-.69-9.02-2.17-11.4-2.17-.8 0-1.32.17-1.33.6-.16 1.62.5 1.71.69 2.82.16.53.03.87-.48.87-.47 0-1.26-.31-2.48-1.08-2.42-1.6-8.52-4.94-13.4-6.95-4.81-2.09-8.81-3.49-7.31-3.92 1.26-.36.59-2.24 3.41-2.24.55 0 1.25.08 2.11.27 1.98.3 3.49.46 4.51.46 1.74 0 2.07-.49.72-1.71-1.7-1.57-1.84-2.86.47-2.86.28 0 .61.04.99.07.48.06.88.09 1.22.09 1.94 0 1.56-.65 1.56-.65s-2-2.31-6.08-3.31c-.76-.21-1.4-.27-1.88-.27-.85 0-1.35.18-1.74.37-.37.2-.58.4-.76.4-.13 0-.25-.12-.39-.43-.78-1.48-2.74-5.03-2.74-5.03-2.08-1.3-2.08-1.3-4.17-2.61-.1-1.02-.1-1.02-.16-2.02 0 0-2.83-.66-5.21-.66-1.73 0-3.21.35-3.26 1.49 0 2.56-.2 3.61 4.11 5.84 4.53 2.31 7.07 3.02 4.23 3.58-2.41.71-.65 2.1-2.46 2.1h-.07c-2.16-.22-6.11-.07-9.62-3.8-3.5-3.98-3.5-4.32-7.65-6.34-4.3-2.25-6.76-3.01-5.01-3.1 1.6-.29 3.05-1.12 3.05-1.12s-2.04-1.11-6.36-2.67c-4.23-1.68-4.82-.39-9.11-3.75-4.07-3.3-7.58-5.96-11-9.02-3.2-3.01-4.54-4.43-2.6-5.06 2.19-.82 5.06-2.34 5.14-3.55.2-.88-.08-5.77.39-5.77.07 0 .23.25.42.83.91 3.06 5.07 8.03 8.45 10.3 3.24 2.01 7.38 4.32 7.11 6.16-.21 1.74-1.46.7 1.61 3.84 3.18 3.12 2.26 4.17 5.75 5.96 2.64 1.39 5.12 2.9 7.03 2.9.71 0 1.31-.21 1.85-.71 1.65-1.7.23-4.59 1.44-4.59.26 0 .63.14 1.16.41 2.95 1.53 4.38 3.6 5.92 3.6.09 0 .16 0 .23-.01 1.86-.23 5 .44 4.12-2.59-.73-3.04-2.65-6.11 2.13-7.56 4.99-1.57-.19-6.82-.77-8.46-.58-1.6-2.65-3.52-.39-3.52h.26c.06.02.15.02.21.02 2.6 0 2.95-2.84.93-4.21-2.09-1.42-4.65-3.34-8.29-3.34-.15 0-.34 0-.5.02-3.9.07-5.2 1.88-1.75 4.61 2.99 2.38 6.23 6.26 4.84 6.26-.22 0-.59-.09-1.06-.32-3.61-1.77-3.85-4.66-11.4-5.41-7.15-.71-11.6-1.07-9.65-2.54 2.01-1.54 6.03-.24 4.42-2.65-1.32-2.04-3.4-6.7-1.35-6.7.42 0 1.01.2 1.79.65 1.22.65 2.13.91 2.72.91 1.73 0 .92-2.15-2.08-3.35-3.96-1.57-4.81-1.48-7.54-4.29-1-1.03-1.74-1.42-2.32-1.42-.95 0-1.4 1.05-1.93 1.94-.14.38-.53.56-1.06.56-1.7 0-5.02-1.84-7.87-5-3.52-4.01-1.56-5.49-5.12-8.31-.75-.58-1.3-.77-1.74-.77-.55 0-.94.33-1.27.66-.34.35-.66.67-1.12.67-.38 0-.87-.26-1.56-1.05-2.68-3.11-3.9-6.77-6.81-8.61-2.78-1.82-3.29-4.23-2.53-5.8.93-1.42-2.1-4.17-6.37-8.15-4.04-3.72-9.43-6.82-10.9-14.4-1.37-7.83-2.66-14.3-2.66-14.3s-.37-.28-.84-.28c-.75 0-1.79.76-2.09 4.6-.28 5.48-.27 7.95-2.34 7.95-.24 0-.52-.03-.83-.1-2.65-.39-3.28-3.02-3.28-3.02-1.28-.99-1.28-.99-2.46-1.64 0 0 .67 1.59-.04 1.59-.18 0-.48-.13-.9-.42-1.89-1.17-3.72-2.59-5.65-4.96-1.83-2.37-3.57-4.84-5.13-13.5-1.28-8.55-1.87-11.6-.03-11.7h.05c1.99 0 3.83 5.41 6.19 6.61 1.17.5 2.09.65 2.69.65.76 0 1.12-.2 1.12-.2s-3.48-7.37-3.81-11.1c-.2-2.74-.09-4.65 1.01-4.65.33 0 .75.17 1.25.54.56.37 1.05.54 1.49.54 1.33 0 2-1.84 1.6-5.96-.45-5.58-1.95-7.88.12-9.89 1.87-1.9 3.71-6.56 5.13-6.84l-.33.85s1.02 1.45 1.96 1.45c.3 0 .63-.18.88-.66.46-.72.8-1.11 1.04-1.11.31 0 .45.73.45 2.39.12 2.87.81 1.71 4.08 3.35 3.41 1.6 4.36 4.85 6.2 5.03 1.9-.03 1.06-7.56 1.06-7.56s1.99 4.07 3.13 5.69c.2.25.42.36.63.36 1.12 0 2.72-2.75 5.49-5.42 1.18-1.15 1.9-1.59 2.46-1.59 1.05 0 1.52 1.6 3.43 3.36 1.23 1.07 2.61 1.64 3.87 1.64 1.73 0 3.24-1.08 3.91-3.41 1.22-4.03 1.72-4.96 5.28-9.69 3.69-4.99 6.65-3.09 14.3-5.65 7.98-2.7 7.77-8.98 10.1-14 2.47-4.95-.99-7.14 2.27-9.83 3.31-2.76 6.45.52 13-5.66 6.58-6.13 18.8-4.55 27.7-12.4 9.02-7.88-1.82-21-5.02-26.9-3.13-5.85 1.85-14.4-.89-20.6-2.63-6.14-1.92-11.2-4.9-13.7-3.12-2.25-9.82-1.9-13.3-4.35-3.32-2.41-2.89-6.32-5.81-16-1.99-6.9-5.95-9.42-8.56-9.42-.85 0-1.54.246-1.99.711-.34.34-.62.492-.77.492-.64 0 .08-2.43 2.03-6.1 1.84-3.52 1.06-5.32-1.29-5.32-.66 0-1.42.121-2.29.418-.55.172-1 .266-1.4.266-2.34 0-1.87-3.05-1.47-4.41.09-.321-.02-.446-.21-.446-.25 0-.71.184-1.19.399-.5.218-1.03.422-1.45.422-.15 0-.31-.02-.43-.094-1.18-.356 1.88-3.38 2.82-5.14.91-1.67-.5-4.67 1.11-6.33 1.6-1.72 5.52-5.86 4.22-6.55-1.28-.648-1.52-.586.32-3.14 1.85-2.44 13.6-9.91 14-10.2-.51.16-7.92 2.36-12.4 5.53-4.56 3.27-9.28 6.39-12.6 8.89-3.25 2.56-8.41 9.44-8.31 12.1.24 2.65-1.38 3.12-5.97 8.41-4.5 5.32-12.9 30.2-16.8 45.9-3.37 16.5-1.83 16.4-7.38 21.8-5.24 5.34-6.84 7.26-13 17.6-5.69 10.1-9.75 27.2-9.56 28.8.22 1.65.32 3.04-.71 6.14-.99 2.9.06 4.98.86 6.67.76 1.68 3.14 10.2 3.65 16.1.34 3.92-.92 7.56-1.79 9.77-.09-2.32-.32-6.73-.98-6.73-.1 0-.24.16-.4.49-1.15 2.32-2.43 3.18-5.36 6.46-2.73 3.36-1.96 2.47-3.22 7.68-1.15 5.04-2.57 3.09-5.39 5.84-2.5 2.59-1.88 3.19-2.59 5.43-.7 2.04-7.5 1.11-7.67 6.73 0 .06-.02.11-.02.15-2.51-13.5-3.83-27.5-3.83-41.8 0-126 102-228 228-228s228 102 228 228c0 33.8-7.37 66-20.6 94.8.09-.25.19-.5.3-.78l.45-1.08c.5-1.13.95-2.29 1.41-3.53l.55-1.37c.43-1.19.87-2.35 1.28-3.51l.65-1.82c.41-1 .77-2.08 1.11-3.18l.54-1.53c.31-1.07.69-2.23 1.03-3.31.26-.76.46-1.53.69-2.23.3-1 .62-2.11.9-3.1.17-.68.38-1.34.56-2.02.26-.9.46-1.84.7-2.76.25-.93.45-1.83.71-2.72.2-.71.31-1.41.51-2.07.25-1.05.54-2.19.73-3.27l.28-1.33c.32-1.59.66-3.08.93-4.69l.18-.99c.24-1.29.52-2.59.72-3.86l.18-1.42.21-1.1.05-.35c.15-.69.22-1.31.29-1.94v-.03l.03-.18v-.01l.08-.54c-.13-1.16-.23-2.53-.25-4.09-.29-6.27-.2-8.52.14-12.7.37-4.48.03-6.47.75-7.95.38-.87.58-1.93.61-3.01v-.39c0-.43-.04-.86-.11-1.29-.15-.68-.38-1.24-.66-1.24-.38 0-.85.93-1.32 3.65-1.03 5.24-2.84 14-4.06 18-1.31 3.99-3.4 10.5-3.77 16.3-.39 4.71-.84 6.79-1.26 6.79-.07 0-.15-.08-.21-.24-.45-1-.64-3.23-.64-3.23s-2.27 3.47-5.5 9.29c-3.48 5.8-1.86 5.15-5.25 6.63-3.65 1.3-5.59.73-13 6.82-7.97 6.23-9.53 8.31-12.3 10.2-1.94 1.31-4.26 3.46-4.84 3.46-.33 0-.14-.66.92-2.44 2.88-4.9 5.86-7.58 7.86-11.7 1.45-3.07 2.62-5.12 3.42-5.12.34 0 .62.34.81 1.11.32 1.05 1.25 1.64 2.42 1.64 1.59 0 3.65-1.09 5.25-3.59 2.7-4.38 4.03-7.17 2.17-11.5-2.02-4.52-.84-6.89-3.92-10.2-3.28-3.33-6.59-5.58-6.59-5.58s-.2.12-.67.12c-.89 0-2.59-.34-5.3-2.23-1.86-1.26-3.47-2.51-5.09-2.51-2.2 0-4.46 2.27-7.58 9.83-5.77 13.3-4.7 4.73-9 14-4.49 9.23-5.81 14.7-9.24 19.5-2.8 3.86-4.18 7.69-5.5 7.69-.34 0-.68-.28-1.07-.9-1.69-3.05 3.2-9.41 5.23-13.9 2-4.47 3.25-6.15 5.04-11.9 1.77-5.87 12-22.2 14.3-25.7 1.88-3.04 3.37-7.01 7.1-7.01.59 0 1.21.1 1.89.32 2.73.77 5.49 2.16 7.37 2.16 1.49 0 2.43-.87 2.43-3.55-.05-6.24-2.71-15.5-8.47-29.5-6.39-14.7-12.9-26.2-13.7-34.6-.9-8.18-.4-19.8-3.78-24.7-3.32-4.72-9.25-7.43-12.5-12.5-3.29-5.08-2.41-12.2-5.25-17.6-2.95-5.38-3.95-2.4-5.87-6.18-1.94-3.79-2.19-8.64-5.66-11.7-3.63-3.15-7.4-10.5-15.6-13.7-6.62-2.47-13-3.15-16-3.15-.81 0-1.37.043-1.7.101-1.51.375-4.73-1.04-5.22 5.33-.48 6.68-6.6 14-7.08 20.1-.54 6.32-1.75 13-4.14 17.9-2.54 4.8-3.42 15 .76 22.1 4.19 7.25 4.19 27.3-1.71 35.6-5.96 8.36-6.32 10.1-6.27 17.2.09 7.01.11 12.3-5 14.9-1.82.89-3.13 1.06-4.29 1.06-.34 0-.66-.01-1-.03-.32-.01-.64-.03-.97-.03-1.39 0-2.9.26-5.17 1.93-3.01 2.15-5.02 3.16-7.1 3.16-1.58 0-3.16-.56-5.27-1.66-2.93-1.59-10.2-3.89-18.1-3.89-5.18 0-10.7 1-15.4 3.89-11.9 7.21-22.6 14.8-24.5 24.2-1.88 9.36.45 17.2.12 24.3-.35 7.02-4.83 15.7 5.07 25.9 9.77 9.9 17.9 10.6 18 17.2-.13 6.57-1.2 8.24 3.97 10.9 5.09 2.57 7 2.57 7.63 6.17.69 3.59.61 3.98.61 3.98s-1.75-.83-3.56-.83c-1.93 0-3.93.95-3.81 4.85.33 7.29-1.96 14.5.54 16 2.49 1.44 5.38 2.25 13.2 2.38h1.31 1.64c5.38 0 7.31.25 5.87 5.88-1.67 6.39-5.47 4.86-7.01 7.21-.4.62-.45.76-.18.76.14 0 .35-.04.63-.07.27-.02.59-.05 1.01-.05 1.63 0 4.37.44 8.32 3.12 8.17 5.1 12.4 8.49 17.6 9.09 5.01.55 7.58.82 5.35 3.96-2.29 3.12-3.61 3.22-1.15 4.16 2.29.97-2.57-.69-5.32 4.25-2.85 4.69-2.75 6.42 1.83 8.29 4.52 1.68 14.1 8.8 20.4 8.8.15 0 .3 0 .46-.02 6.16-.53 18.4-2.78 28-7.53 9.45-4.97 12.4-6.81 14.2-7.53 1.42-.54 4.01-2.53 4.57-2.53.22 0 .11.33-.52 1.23-1.46 2.05-2.17 3.18-1.69 3.18.19 0 .53-.19 1.11-.53 1.8-1.14 1.8-3.3 3.13-3.3h.15c1.43.21 2.65.73 2.65.73s2.92-.11 5.36-1.27c2.45-1.19 2.17-.57 3.77-1.68.88-.62 2.67-1.39 3.81-1.7-3.45 2.72-7 5.35-10.6 7.87.23-.57.67-.96 1.17-1.47.53-.6.19-.63.12-.63h-.02c-.41.19-4.96 1.82-5.81 2.61-.6.54-1.74 2.5-.68 3.07-36 23.7-79 37.5-125 37.5-27.5 0-53.9-4.89-78.4-13.8m74-13.6c.5.29 1.35.46 2.3.46 1.16 0 2.46-.28 3.33-.88 1.52-1.13.75-.94 4.01-1.9 3.17-1.02-1.98-1.65-5.2-2.32-2.67-.59-4.42-1.85-8.26-1.85-.53 0-1.1.04-1.73.1-5.04.27-6.27 3.87-6.27 3.87.38.1 1.37 2.33 2.88 2.61.2.03.38.03.53.03 1.16 0 1.87-.8 4.81-1.45.69-.15 1.22-.24 1.6-.24 1.4 0 1.1.96 2 1.57m25-37.6s4.71.44 3.26 3.28c-1.44 2.83-1.14.65.75 3.9 1.89 3.22 3.06 1.97 1.1 4.56-1.85 2.47-4.92 7.1-.72 7.67.44.05.84.07 1.21.07 3.38 0 5.05-1.82 5.72-3.64.62-1.99 4.41-4.84 6.06-6.23 1.56-1.39 1.79-3.72 1.17-4.84-.8-1.12-3.03-3.4-6.02-3.43-3.13-.1-6.63-.75-7.62-1.72-.25-.26-.73-.35-1.26-.35-1.53 0-3.65.73-3.65.73m-12.6 5.24c-1.62.45-.85 2.39.77 4.49 1.44 2.09 1.9 1.11 3.69 2.41.63.5 1.01.74 1.44.74.69 0 1.48-.62 3.54-1.83 3.45-2 1.13-3.26-2.09-5.33-2.87-1.83-2.76-2.26-2.66-2.32-.41.26-3.16 1.44-4.69 1.84m4.69-1.84v-.03.03m-147 17.8v-.21c.03-.21.16-.27.37-.27.15 0 .34.06.55.09.18.06.39.09.55.09.18 0 .32-.05.29-.34-.29-1.07-.27-1.49-.27-1.49s4.68 2.03 4.41 3.17c-.07 1.27.1 2.52 2.05 4 1.87 1.49 2.22.99 3.71 2.66.21.23.39.43.53.6-4.16-2.64-8.22-5.42-12.2-8.3m219 4.4c-.99-1.66-4.28-.31-6.24-1.71-2.17-1.46 1.18-2.15 2.82-3.7 1.45-1.54 1.31-3.93-.46-4.47-1.75-.53-3.03-.22-3.66-2.07-.73-1.87-2.37-2.42-6.02-2.96-.21-.03-.4-.05-.57-.05-3.26 0-3.64 4.95-4.87 6.58-1.01 1.34-1.67 1.43-2.76 1.43h-.24-.25-.56c-.11 0-.2.02-.29.02-1.48 0-1.9-.87-1.2-1.91.37-.54.48-.58.78-.58h.14.18c.44 0 1.15-.06 2.45-.46 2.98-.99 2.92-5.77 3.41-6.98 0 0 3.38-.34 8.07-.86 4.77-.59 8.54-.44 12.4-.71.22-.02.4-.02.57-.02 2.83 0 .16 1.63 2.01 3.49 1.76 2.03 2.66.79 3.38 1.64.7.89.61 1.53-1.23 4.15-1.77 2.53-3.84 3.24-6.21 6.08-2.18 2.72 1.97 2.1 3.6 3.12 1.43 1.02-.34 1.11-2.79 2.1-.53.2-.91.27-1.15.27-1.02 0-.49-1.21-1.27-2.4m-228-10.9c.5.25 1.08.65 1.52 1.21-.52-.4-1.02-.82-1.52-1.21m218-33.1c2.76-2.78 5.67-5.68 9.93-9.32 4.26-3.79 5.3-2.94 3.82-6.14-1.69-3.24-3.19-4.28-2.95-5.15.04-.1.04-.16-.01-.16-.46 0-3.51 3.11-6.13 6.12-3.03 3.42-7.05 7.7-10.2 9.25-2.97 1.48-3.37 4.03-5.47 4.03-.15 0-.37-.02-.59-.08-2.66-.48-1-.74-4.96-.74-2.61.08-5.51 1.17-7.83 1.17-1.33 0-2.44-.37-3.15-1.54-1.83-3.28-6.08-5.37-8.37-7.12-2.34-1.71-2.56-5.93-3.18-7.3-.47-1.39-4.39-4.16-5.63-4.59-1.37-.45-2.97-1.86-2.97-1.86s-.79.65-1.78.65c-.61 0-1.31-.25-1.91-1.07-1.44-1.99-2.23-3.4.26-3.4h.57c.66.04 1.42.04 2.19.04h.12c3.25 0 7.21.01 9.24 2.05 2 1.98 2.4 2.75 8.11 2.75 1.76 0 3.98-.08 6.89-.2 1.12-.07 2.16-.09 3.12-.09 2.57 0 4.75.17 6.62.32 1.85.18 3.39.34 4.64.34 2.38 0 3.75-.57 4.62-2.82 1.77-5.05-1.97-10 3.19-10.7 5.17-.82 7.04-3.3 12-6.37 3.87-2.37 5.61-4.76 7.93-4.76.63 0 1.31.19 2.07.6 3.53 1.92 1.2 6.48 4.53 6.48h.04c3.32 0 6.39-2.06 12-4.23 4.13-1.63 13.2-4.44 18.8-4.44 1.88 0 3.38.33 4.16 1.14 3.05 2.97 6.48 6.41 4.32 11.6-1.57 3.79-3.5 5.91-4.62 5.91-.36 0-.65-.23-.79-.73-.34-1.39-1.04-2.68-2.17-2.68-.58 0-1.28.36-2.13 1.23-1.31 1.39-2 1.89-2.46 1.89-.48 0-.78-.4-1.31-.84-.47-.4-.98-.55-1.55-.55-.88 0-1.85.43-2.63 1.06-1.23 1.1-4.95 4.45-5.5 7.12-.63 2.76-2.49 2.1-4.17 4.75-1.34 2.04-1.73 3.69-2.94 3.69-.32 0-.68-.11-1.13-.33-2.06-1.32-4.28.29-3-2.59 1.22-2.73 2.87-1.14 2.73-3.79-.13-2.69-2.84-3.65-2.6-5.37.02-.27-.04-.38-.23-.38-.9 0-4.28 3.32-5.52 5.59-1.4 2.53-6.27 8.36-7.26 11.1-.99 2.68-6.4 8.59-11.9 10.7-2.85 1.05-4.76 1.72-5.56 1.72-.72 0-.52-.56.71-1.89m40.2-5.51c-.98-3.78-.85-9.17 2.37-9.17.14 0 .27.02.43.03 2.13.39 3.15 1.27 5.07 1.27 1.2 0 2.74-.34 5.1-1.38 6.03-2.68 4.08-4.88 10.3-5.09.9-.06 1.78-.09 2.54-.09 4.04 0 5.42.99 2.56 4.82-3.57 4.6-4.92 2.22-7.51 7.4-1.96 3.92-1.61 6.33-2.62 6.33-.26 0-.65-.18-1.17-.54-2.71-1.65-1.03-3.6-2.32-4.61-.91-.56-1.63-1.67-2.57-1.67-.54 0-1.15.34-1.91 1.32-2.09 2.75-3.15 5.66-5.08 6.27-1.82.41-2.06.43-2.06.43s-2.03-1.51-3.09-5.32"/></clipPath><radialGradient id="a" cx="0" cy="0" r="1" gradientTransform="matrix(228 0 0 -228 2142 1076)" gradientUnits="userSpaceOnUse"><stop stop-color="#459ddc" offset="0"/><stop stop-color="#387cc8" offset="1"/></radialGradient></defs><path d="m178 105-3.08 5.66v.0319h3.29l-.112 1.09h-4.84v-.826l3.17-5.71v-.0317h-3v-1.05h4.57zm-5.71.222h-1.67v4.22c0 .54.0693.907.207 1.1.137.196.371.294.699.294.191 0 .355-.0265.492-.0797.137-.0525.237-.101.301-.143l.175 1.03c-.0533.0428-.18.109-.381.199-.201.09-.471.135-.809.135-.656 0-1.15-.182-1.48-.547-.327-.365-.491-.97-.491-1.82v-4.4h-.921v-.857l.921-.19.143-2.13h1.14v2.13h1.83zm-5.22 6.57h-1.17v-.857h-.032c-.0307.0629-.1.156-.205.278-.107.121-.241.237-.405.349-.164.111-.361.209-.595.293-.232.0849-.492.127-.777.127-.339 0-.643-.05-.912-.151-.271-.101-.5-.262-.691-.484-.191-.222-.336-.51-.436-.865-.101-.354-.151-.791-.151-1.31v-5h1.29v4.9c0 .635.103 1.09.309 1.36.207.27.525.405.96.405.369 0 .681-.0927.936-.278.253-.185.455-.368.603-.547v-5.84h1.29zm-8.54 0v-4.9c0-.645-.109-1.11-.325-1.39-.217-.281-.548-.421-.992-.421-.381 0-.699.0953-.952.286-.253.19-.455.376-.603.555v5.87h-1.29v-11.2l1.29-.144v4.52h.032c.0413-.0635.108-.148.197-.254.0907-.106.215-.211.373-.317.159-.106.352-.198.579-.278.228-.0796.495-.119.801-.119.667 0 1.2.217 1.59.651.392.434.588 1.15.588 2.16v5zm-6.05-6.14c-.032-.0317-.0827-.0792-.151-.143-.0693-.0636-.156-.127-.263-.191-.105-.0636-.232-.119-.38-.167-.148-.0475-.317-.0713-.508-.0713-.275 0-.532.0505-.769.151-.239.101-.444.261-.619.484-.175.222-.312.511-.413.865-.1.354-.151.785-.151 1.29 0 .56.0453 1.03.135 1.41.0907.381.215.685.373.913s.352.391.579.492c.228.101.479.151.755.151.391 0 .689-.0688.896-.206.207-.137.352-.248.436-.333l.524.889c-.0533.0636-.129.14-.231.23-.1.0896-.229.177-.388.261-.159.0848-.352.156-.579.215-.228.0579-.489.0869-.787.0869-.423 0-.819-.0687-1.19-.206-.371-.137-.693-.365-.968-.682s-.492-.73-.651-1.24c-.159-.508-.237-1.14-.237-1.89 0-.73.0947-1.35.285-1.86.191-.507.439-.917.745-1.23.307-.312.648-.539 1.02-.682.375-.143.753-.214 1.13-.214.285 0 .536.0265.753.0796.216.0527.401.119.555.198.153.0796.281.164.381.254.1.0901.183.167.245.23zm-6.51.0635c-.0853-.0952-.239-.225-.46-.389-.223-.163-.513-.246-.873-.246-.339 0-.597.0796-.777.238-.18.159-.269.349-.269.571 0 .285.0813.521.245.706.164.185.416.383.755.595l.475.285c.519.307.927.638 1.22.992.296.355.444.812.444 1.37 0 .603-.209 1.11-.627 1.52-.417.412-1.02.619-1.8.619-.307 0-.576-.0317-.809-.0953-.232-.0629-.436-.137-.611-.222-.175-.0848-.32-.177-.436-.278s-.212-.193-.285-.278l.619-1.02c.0627.0636.14.137.229.222.0907.0849.199.167.325.246.128.0792.271.145.429.198.159.0532.344.0797.555.0797.381 0 .672-.0849.873-.254.2-.169.301-.376.301-.619 0-.18-.024-.336-.072-.468-.0467-.132-.119-.251-.213-.357-.096-.106-.212-.206-.349-.302-.137-.0948-.296-.201-.476-.317l-.476-.302c-.476-.307-.849-.629-1.12-.968-.269-.339-.405-.772-.405-1.3 0-.285.056-.547.167-.785.112-.238.268-.444.468-.619.201-.174.437-.312.707-.412.269-.101.557-.151.865-.151.296 0 .549.0291.761.0875.211.0583.393.132.547.222.153.0901.28.18.381.27.1.0901.183.167.245.23zm-7.76 5.17c.18 0 .339-.0265.476-.0791.137-.0532.256-.117.356-.191.101-.074.185-.156.255-.246.068-.0901.129-.167.183-.23v-1.68l-.413.0161c-.613.0209-1.08.127-1.4.317-.317.19-.476.497-.476.92 0 .391.0893.685.269.88.18.196.429.294.747.294zm-2.3-1.03c0-.444.0853-.815.255-1.11.168-.296.396-.537.681-.722.285-.185.621-.317 1.01-.396.385-.0796.796-.119 1.23-.119h.397v-.73c0-.645-.115-1.09-.341-1.33-.228-.243-.548-.365-.96-.365-.381 0-.699.0823-.952.246-.255.164-.455.31-.603.437l-.54-.857c.0853-.0844.193-.18.325-.285s.293-.206.484-.301c.191-.0953.407-.175.651-.238.243-.0636.519-.0953.825-.0953.783 0 1.37.217 1.78.651.401.434.603 1.13.603 2.09v3.47c0 .328.0107.648.0307.96.0213.312.0427.521.064.627h-1.22l-.048-.841h-.032c-.0413.0953-.105.204-.191.325-.084.122-.189.233-.317.333-.127.101-.28.188-.46.262-.18.074-.391.111-.635.111-.285 0-.552-.0525-.801-.158-.248-.106-.465-.254-.649-.444-.185-.191-.328-.416-.429-.675-.1-.259-.151-.542-.151-.849zm-6.76 1.94v-4.9c0-.624-.0901-1.07-.27-1.35-.18-.275-.471-.413-.873-.413-.211 0-.399.026-.563.0792-.164.0531-.309.119-.437.198-.127.0792-.238.167-.333.262-.0953.0948-.174.18-.238.254v5.87h-1.28v-7.62h1.17v.857h.0317c.0532-.0849.132-.188.238-.309.106-.122.238-.238.397-.349.158-.111.343-.204.555-.278.211-.0745.449-.111.714-.111.867 0 1.48.339 1.84 1.02.0745-.106.175-.219.302-.341.127-.122.275-.233.444-.333.169-.101.36-.182.571-.246.211-.0636.444-.0953.698-.0953 1.54 0 2.32.899 2.32 2.7v5.11h-1.28v-4.9c0-.624-.111-1.07-.333-1.35-.222-.275-.55-.413-.984-.413-.359 0-.658.0869-.896.261-.238.175-.426.341-.563.5.0213.116.0375.241.0479.373.0104.132.0156.272.0156.42v5.11zm-6.6-9.46c-.265 0-.476-.0844-.635-.254-.159-.169-.238-.392-.238-.667 0-.265.0792-.481.238-.651.159-.17.37-.254.635-.254.254 0 .46.084.619.254.158.169.238.386.238.651 0 .275-.0796.497-.238.667-.159.169-.365.254-.619.254zm.634 9.46h-1.28v-7.62h1.28zm-3.63-1.78c0 .317.0448.539.135.666.0901.127.246.191.468.191.116 0 .214-.0109.293-.0317.0797-.0213.14-.0423.182-.0636l.111.952c-.0635.0317-.18.074-.349.127-.169.0532-.396.0797-.682.0797-.434 0-.783-.132-1.05-.397-.265-.264-.397-.735-.397-1.41v-9.55l1.29-.144zm-5.98-3.82 3.71 5.6h-1.7l-3.17-4.98h-.825v4.98h-1.38v-10.9h1.38v4.87h.841l3.06-4.87h1.54zm-11.7 4.65c.201 0 .381-.0265.54-.0797.159-.0525.296-.119.413-.198.117-.0797.215-.161.294-.246.0792-.0844.14-.158.182-.222v-4.7c-.116-.0739-.251-.137-.404-.191-.154-.0532-.347-.0792-.58-.0792-.296 0-.573.05-.833.151-.259.101-.484.267-.674.5-.19.232-.341.534-.452.904-.111.37-.167.825-.167 1.36 0 .529.0453.971.135 1.32.09.354.214.64.373.857.159.217.339.373.539.468.201.0948.413.143.634.143zm-3.01-2.75c0-.772.101-1.42.302-1.94.201-.518.46-.936.778-1.25.317-.317.677-.542 1.08-.675.402-.132.804-.198 1.21-.198.243 0 .455.0183.634.0552.18.0371.328.0823.444.135v-3.65l1.29-.144v11.4h-1.17v-.809h-.0312c-.0317.0636-.0901.151-.175.261-.0843.111-.201.222-.349.333-.148.111-.333.206-.555.286-.222.0791-.481.119-.778.119-.359 0-.701-.0713-1.02-.214-.322-.143-.605-.37-.849-.682-.243-.312-.436-.714-.579-1.21-.143-.492-.215-1.09-.215-1.79zm-2.86 3.7v-4.9c0-.645-.108-1.11-.326-1.39-.217-.281-.547-.421-.992-.421-.381 0-.698.0953-.952.286-.254.19-.455.376-.603.555v5.87h-1.29v-7.62h1.17v.857h.0312c.0317-.0635.101-.156.207-.278.106-.122.243-.238.413-.349.169-.111.37-.208.603-.293.233-.0849.497-.127.793-.127.339 0 .645.0505.92.151.275.1.508.261.698.484.19.222.339.511.444.865.106.354.158.791.158 1.31v5zm-6.12 0h-1.17v-.857h-.0319c-.0317.0629-.1.156-.206.278-.106.121-.241.237-.404.349-.164.111-.362.209-.595.293-.233.0849-.492.127-.778.127-.339 0-.642-.05-.912-.151-.27-.101-.5-.262-.69-.484-.191-.222-.336-.51-.437-.865-.101-.354-.151-.791-.151-1.31v-5h1.29v4.9c0 .635.103 1.09.309 1.36.206.27.526.405.96.405.37 0 .682-.0927.936-.278.254-.185.455-.368.603-.547v-5.84h1.29zm71.9-22.6h-1.67v4.22c0 .539.068.907.205 1.1.137.195.371.293.699.293.191 0 .355-.0267.492-.08.137-.052.237-.1.301-.143l.175 1.03c-.0533.0427-.18.108-.381.197-.201.0907-.471.136-.809.136-.656 0-1.15-.183-1.47-.548-.328-.364-.492-.971-.492-1.82v-4.39h-.921v-.857l.921-.189.143-2.13h1.14v2.13h1.82zm-4.52 0h-1.56v6.57h-1.29v-6.57h-.92v-.857l.92-.173v-1.52c0-.412.0587-.767.175-1.06.117-.296.271-.54.46-.731.191-.189.413-.327.667-.412.255-.084.524-.127.809-.127.276 0 .508.0373.699.111.191.0747.317.133.38.175l-.269 1.06c-.064-.0413-.153-.0867-.269-.135-.116-.0467-.26-.0707-.429-.0707-.307 0-.539.0947-.697.285-.159.191-.239.54-.239 1.05v1.37h1.71zm-7.68 5.66c.18 0 .339-.0253.476-.0787.137-.0533.256-.116.357-.191.1-.0733.185-.156.253-.245.0693-.0907.129-.167.183-.231v-1.68l-.412.016c-.613.02-1.08.127-1.4.317-.317.189-.476.497-.476.92 0 .391.0907.685.271.88.18.196.428.293.745.293zm-2.3-1.03c0-.444.0853-.815.255-1.11.169-.296.396-.537.683-.723.285-.184.621-.317 1.01-.396.387-.08.796-.119 1.23-.119h.396v-.731c0-.645-.113-1.09-.341-1.33-.227-.244-.547-.365-.96-.365-.38 0-.697.0827-.952.245-.253.164-.455.311-.603.437l-.54-.857c.0853-.084.193-.18.325-.285.132-.105.293-.207.484-.301.191-.096.408-.175.651-.239.244-.0627.519-.0947.825-.0947.783 0 1.37.217 1.78.651.401.433.603 1.13.603 2.09v3.47c0 .328.0107.648.032.96s.0413.521.0627.627h-1.22l-.048-.841h-.0307c-.0427.096-.107.204-.191.325-.0853.121-.191.232-.317.333-.127.1-.28.188-.46.261-.18.0747-.392.112-.635.112-.287 0-.553-.0533-.801-.159-.249-.107-.465-.255-.651-.444-.185-.191-.328-.416-.428-.675-.101-.26-.152-.543-.152-.849zm-2.76 1.94v-4.9c0-.645-.108-1.11-.325-1.39-.217-.28-.548-.42-.992-.42-.38 0-.697.0947-.952.285-.253.191-.455.376-.603.556v5.87h-1.29v-11.2l1.29-.144v4.52h.032c.0413-.064.108-.148.199-.255.0893-.105.213-.211.372-.316.159-.107.352-.199.58-.279.227-.0787.493-.119.8-.119.667 0 1.2.217 1.59.651.392.433.588 1.15.588 2.16v5zm-6.05-6.14c-.032-.0307-.0827-.0787-.151-.143-.0693-.0627-.156-.127-.261-.191-.107-.0627-.233-.119-.381-.167-.148-.0467-.317-.0707-.508-.0707-.275 0-.531.0507-.769.151-.237.101-.444.261-.619.484-.175.223-.312.511-.412.865-.101.353-.152.785-.152 1.29 0 .561.0453 1.03.136 1.41.0893.381.213.685.372.913.159.228.352.391.58.492.227.1.479.151.753.151.391 0 .691-.0693.896-.207.207-.137.352-.248.436-.333l.524.889c-.0533.0627-.129.14-.229.229-.101.0893-.231.177-.389.261-.159.0853-.352.157-.579.215-.228.0587-.489.088-.785.088-.424 0-.82-.0693-1.19-.207-.371-.137-.692-.365-.968-.683-.275-.317-.492-.729-.651-1.24-.159-.508-.237-1.14-.237-1.89 0-.731.0947-1.35.285-1.86.191-.507.439-.916.745-1.23.307-.312.648-.539 1.02-.683.376-.143.753-.213 1.13-.213.285 0 .536.0267.753.08.217.052.401.119.556.197.153.08.28.164.38.255.1.0893.183.167.247.229zm-6.51.064c-.0844-.0947-.238-.225-.46-.389-.222-.163-.513-.245-.873-.245-.339 0-.597.08-.777.237-.18.16-.27.349-.27.572 0 .285.0817.521.246.707.164.184.415.383.754.595l.476.285c.518.307.925.637 1.22.992.296.355.444.812.444 1.37 0 .603-.209 1.11-.627 1.52-.418.413-1.02.62-1.8.62-.307 0-.576-.032-.809-.096-.233-.0627-.437-.137-.611-.221-.175-.0853-.32-.177-.437-.279-.116-.1-.211-.192-.285-.277l.619-1.01c.0636.0627.14.137.23.221.0896.0853.198.167.325.245.127.08.27.147.429.199.158.0533.344.08.555.08.381 0 .672-.0853.872-.255.201-.169.302-.375.302-.619 0-.18-.0235-.336-.0713-.468-.0475-.132-.119-.251-.214-.357-.0953-.105-.211-.205-.349-.301-.137-.0947-.296-.201-.476-.317l-.476-.301c-.476-.307-.849-.629-1.12-.968-.27-.337-.405-.772-.405-1.3 0-.287.0557-.548.167-.785.111-.239.267-.445.468-.619.201-.175.437-.312.706-.413.27-.1.558-.151.865-.151.296 0 .55.0293.761.0867.211.0587.394.133.547.223.154.0893.28.18.381.269.1.0907.183.167.246.231zm-4.74-.492h-1.67v4.22c0 .539.0688.907.206 1.1.137.195.37.293.698.293.191 0 .355-.0267.492-.08.137-.052.238-.1.301-.143l.175 1.03c-.0531.0427-.18.108-.381.197-.201.0907-.47.136-.809.136-.656 0-1.15-.183-1.48-.548-.328-.364-.492-.971-.492-1.82v-4.39h-.92v-.857l.92-.189.143-2.13h1.14v2.13h1.82zm-4.52.08c-.0317-.0213-.101-.048-.206-.08-.106-.0307-.248-.048-.428-.048-.402 0-.717.109-.944.325-.228.217-.389.453-.484.707v5.59h-1.29v-7.62h1.17v1.03h.0319c.0525-.148.121-.293.206-.436.0843-.143.19-.269.317-.381.127-.111.278-.197.452-.261.175-.0627.383-.0947.627-.0947.18 0 .326.016.437.0467.111.032.198.0587.262.08zm-5.95-2.97c-.264 0-.476-.084-.634-.253-.159-.169-.238-.392-.238-.667 0-.264.0792-.481.238-.651.158-.169.37-.253.634-.253.254 0 .46.084.619.253.159.169.238.387.238.651 0 .275-.0792.497-.238.667-.158.169-.365.253-.619.253zm.635 9.46h-1.29v-7.62h1.29zm-2.48-10.9-2.67 10.9h-1.24l-1.67-6.89c-.117-.476-.217-.92-.302-1.33-.0849-.412-.132-.74-.143-.983h-.0317c0 .243-.0428.565-.127.968-.0848.401-.185.84-.301 1.32l-1.7 6.92h-1.24l-2.6-10.9h1.48l1.36 6.66c.106.508.198.987.278 1.44.0797.449.125.795.135 1.04h.0317c.0104-.244.0661-.597.167-1.06.101-.465.209-.947.326-1.44l1.62-6.63h1.32l1.59 6.66c.116.508.222.987.317 1.44.0952.449.148.795.159 1.04h.0317c.0104-.244.0579-.6.143-1.07.0843-.471.18-.96.285-1.47l1.38-6.6zm-15.2 4.46c-.0317-.0213-.101-.048-.206-.08-.106-.0307-.248-.048-.429-.048-.401 0-.717.109-.944.325-.228.217-.389.453-.484.707v5.59h-1.29v-7.62h1.17v1.03h.0319c.0531-.148.122-.293.206-.436.0848-.143.191-.269.318-.381.127-.111.278-.197.452-.261.175-.0627.383-.0947.627-.0947.18 0 .326.016.437.0467.111.032.198.0587.262.08zm-6.03-3.32c0 .243-.0739.439-.222.587-.148.148-.328.223-.539.223-.211 0-.391-.0747-.539-.223-.149-.148-.222-.344-.222-.587 0-.244.0739-.44.222-.588.148-.148.328-.221.539-.221.212 0 .392.0733.539.221.149.148.222.344.222.588zm-2.44 0c0 .243-.0739.439-.222.587-.148.148-.328.223-.54.223-.211 0-.391-.0747-.54-.223-.148-.148-.222-.344-.222-.587 0-.244.074-.44.222-.588.149-.148.328-.221.54-.221.211 0 .391.0733.54.221.148.148.222.344.222.588zm3.16 9.81h-1.17v-.857h-.0317c-.0317.064-.101.156-.206.279-.106.121-.241.237-.404.348-.164.111-.363.209-.595.293-.233.0853-.492.128-.778.128-.339 0-.642-.0507-.912-.151-.27-.101-.5-.263-.691-.484-.19-.223-.335-.511-.436-.865-.101-.355-.151-.791-.151-1.31v-5h1.29v4.9c0 .635.103 1.09.309 1.36.206.271.526.405.96.405.37 0 .682-.0933.936-.279.254-.184.455-.367.603-.547v-5.84h1.29zm-6.6-6.57h-1.56v6.57h-1.29v-6.57h-.92v-.857l.92-.173v-1.52c0-.412.0584-.767.175-1.06.116-.296.269-.54.46-.731.191-.189.413-.327.666-.412.254-.084.524-.127.809-.127.275 0 .508.0373.699.111.19.0747.317.133.381.175l-.27 1.06c-.0636-.0413-.154-.0867-.27-.135-.117-.0467-.259-.0707-.429-.0707-.307 0-.539.0947-.698.285-.159.191-.238.54-.238 1.05v1.37h1.71zm99.9-9.43v-4.9c0-.624-.0907-1.07-.271-1.35-.18-.275-.471-.412-.872-.412-.212 0-.4.0253-.564.0787-.164.0533-.309.119-.436.199-.127.0787-.237.167-.333.261-.0947.096-.175.18-.237.255v5.87h-1.29v-7.62h1.17v.856h.032c.0533-.084.132-.188.239-.309.105-.121.237-.237.396-.348.159-.112.344-.204.556-.279.212-.0733.449-.111.713-.111.868 0 1.48.339 1.84 1.02.0733-.107.175-.22.301-.341.127-.123.275-.233.444-.333.169-.101.36-.183.571-.247.212-.0627.445-.0947.699-.0947 1.54 0 2.32.899 2.32 2.7v5.11h-1.29v-4.9c0-.624-.111-1.07-.332-1.35-.223-.275-.551-.412-.984-.412-.36 0-.659.0867-.897.261-.237.175-.425.341-.563.5.0213.116.0373.24.048.373.0107.132.016.272.016.42v5.11zm-5.97 0h-1.17v-.857h-.032c-.032.064-.101.156-.207.279-.105.121-.24.237-.404.348s-.363.209-.596.293c-.232.0853-.491.128-.777.128-.339 0-.643-.0507-.912-.151-.269-.101-.5-.263-.691-.484-.189-.223-.335-.511-.436-.865-.1-.355-.151-.791-.151-1.31v-5h1.29v4.9c0 .635.103 1.09.309 1.36.207.271.527.405.96.405.371 0 .683-.0933.936-.279.255-.184.455-.367.603-.547v-5.84h1.29zm-7.93-9.46c-.264 0-.476-.084-.635-.253-.159-.169-.237-.392-.237-.667 0-.264.0787-.481.237-.651.159-.169.371-.253.635-.253.255 0 .46.084.619.253.159.169.239.387.239.651 0 .275-.08.497-.239.667s-.364.253-.619.253zm.635 9.46h-1.29v-7.62h1.29zm-2.55-6.49c-.0307-.0213-.1-.048-.205-.08-.107-.0307-.249-.048-.429-.048-.401 0-.716.109-.944.325-.227.217-.388.453-.484.707v5.59h-1.29v-7.62h1.17v1.03h.032c.0533-.148.121-.293.207-.436.084-.143.189-.269.317-.381.127-.111.277-.197.452-.261.175-.0627.383-.0947.627-.0947.18 0 .325.016.436.0467.111.032.199.0587.261.08zm-7.47-.271c-.455 0-.819.191-1.09.572-.275.38-.433.931-.476 1.65h2.78c.0107-.052.0187-.129.024-.229.005-.101.008-.209.008-.325 0-.529-.107-.939-.317-1.23-.212-.292-.519-.437-.921-.437zm2.41 1.71c0 .328-.0107.611-.032.848-.02.239-.0413.447-.0627.627h-3.89c.0427.899.236 1.56.58 1.98s.837.635 1.48.635c.223 0 .424-.0267.604-.08.179-.052.335-.116.468-.189.132-.0747.243-.149.333-.223.0893-.0747.156-.132.197-.175l.476.904c-.052.0533-.132.131-.237.231-.107.1-.249.2-.429.301-.179.1-.401.188-.665.261-.265.0747-.577.112-.936.112-.476 0-.908-.08-1.29-.239-.387-.159-.715-.405-.984-.739-.269-.332-.479-.756-.627-1.27-.148-.513-.223-1.13-.223-1.85 0-.676.0773-1.26.231-1.75.153-.491.363-.896.627-1.21s.571-.552.92-.705c.349-.155.724-.231 1.13-.231.729 0 1.3.231 1.71.689.413.461.619 1.15.619 2.07zm-6.23-1.52h-1.67v4.22c0 .539.0693.907.207 1.1.137.195.369.293.697.293.191 0 .355-.0267.492-.08.137-.052.239-.1.301-.143l.175 1.03c-.052.0427-.18.108-.38.197-.201.0907-.471.136-.809.136-.656 0-1.15-.183-1.48-.548-.328-.364-.492-.971-.492-1.82v-4.39h-.92v-.857l.92-.189.143-2.13h1.14v2.13h1.83zm-5.52.492c-.084-.0947-.237-.225-.46-.389-.221-.163-.513-.245-.872-.245-.339 0-.597.08-.777.237-.18.16-.271.349-.271.572 0 .285.0827.521.247.707.164.184.415.383.753.595l.476.285c.519.307.925.637 1.22.992.296.355.445.812.445 1.37 0 .603-.209 1.11-.627 1.52-.419.413-1.02.62-1.8.62-.307 0-.577-.032-.809-.096-.233-.0627-.436-.137-.611-.221-.175-.0853-.32-.177-.436-.279-.117-.1-.212-.192-.287-.277l.619-1.01c.064.0627.141.137.231.221.0893.0853.199.167.325.245.127.08.269.147.428.199.159.0533.344.08.556.08.38 0 .672-.0853.872-.255.201-.169.301-.375.301-.619 0-.18-.0227-.336-.0707-.468s-.119-.251-.215-.357c-.0947-.105-.212-.205-.349-.301-.137-.0947-.296-.201-.476-.317l-.476-.301c-.476-.307-.848-.629-1.12-.968-.269-.337-.404-.772-.404-1.3 0-.287.056-.548.167-.785.111-.239.267-.445.468-.619.201-.175.436-.312.707-.413.269-.1.557-.151.864-.151.296 0 .551.0293.761.0867.212.0587.395.133.548.223.153.0893.28.18.381.269.1.0907.181.167.245.231zm-5.89-3.38c-.264 0-.476-.084-.635-.253-.159-.169-.237-.392-.237-.667 0-.264.0787-.481.237-.651.159-.169.371-.253.635-.253.255 0 .461.084.62.253.159.169.237.387.237.651 0 .275-.0787.497-.237.667-.159.169-.365.253-.62.253zm.635 9.46h-1.28v-7.62h1.28zm-4.49 0v-4.9c0-.645-.109-1.11-.325-1.39-.217-.28-.548-.42-.992-.42-.381 0-.699.0947-.952.285-.253.191-.455.376-.603.556v5.87h-1.29v-7.62h1.17v.856h.0307c.032-.0627.101-.156.207-.277.105-.121.244-.237.412-.349.169-.111.371-.208.604-.293.232-.084.497-.127.793-.127.339 0 .645.0507.92.151.275.101.508.261.697.484.191.221.339.511.445.864.105.355.159.791.159 1.31v5zm-6.76-9.46c-.264 0-.476-.084-.635-.253-.159-.169-.237-.392-.237-.667 0-.264.0787-.481.237-.651.159-.169.371-.253.635-.253.255 0 .46.084.619.253.159.169.239.387.239.651 0 .275-.08.497-.239.667s-.364.253-.619.253zm.635 9.46h-1.29v-7.62h1.29zm-8.49 0v-4.9c0-.624-.0901-1.07-.27-1.35-.18-.275-.471-.412-.873-.412-.211 0-.399.0253-.563.0787-.164.0533-.309.119-.437.199-.127.0787-.238.167-.333.261-.0952.096-.174.18-.238.255v5.87h-1.28v-7.62h1.17v.856h.0317c.0532-.084.132-.188.238-.309.106-.121.238-.237.396-.348.159-.112.344-.204.556-.279.211-.0733.449-.111.714-.111.867 0 1.48.339 1.84 1.02.0739-.107.174-.22.301-.341.127-.123.275-.233.444-.333.169-.101.36-.183.571-.247.211-.0627.444-.0947.698-.0947 1.54 0 2.32.899 2.32 2.7v5.11h-1.29v-4.9c0-.624-.112-1.07-.333-1.35-.223-.275-.551-.412-.984-.412-.359 0-.658.0867-.896.261-.238.175-.426.341-.564.5.0213.116.0369.24.0479.373.0104.132.0157.272.0157.42v5.11zm-6.27-6.08c-.0844-.0947-.238-.225-.46-.389-.222-.163-.513-.245-.873-.245-.339 0-.597.08-.777.237-.18.16-.27.349-.27.572 0 .285.0819.521.246.707.164.184.415.383.754.595l.476.285c.518.307.925.637 1.22.992.296.355.444.812.444 1.37 0 .603-.209 1.11-.627 1.52-.418.413-1.02.62-1.8.62-.307 0-.577-.032-.809-.096-.233-.0627-.436-.137-.611-.221-.174-.0853-.32-.177-.436-.279-.116-.1-.211-.192-.285-.277l.619-1.01c.0636.0627.14.137.23.221.0895.0853.198.167.325.245.127.08.27.147.429.199.158.0533.344.08.555.08.381 0 .672-.0853.873-.255.201-.169.301-.375.301-.619 0-.18-.0235-.336-.0713-.468-.0475-.132-.119-.251-.214-.357-.0953-.105-.211-.205-.349-.301-.137-.0947-.296-.201-.476-.317l-.476-.301c-.476-.307-.849-.629-1.12-.968-.27-.337-.405-.772-.405-1.3 0-.287.0557-.548.167-.785.111-.239.267-.445.468-.619.201-.175.437-.312.706-.413.27-.1.558-.151.865-.151.296 0 .55.0293.761.0867.211.0587.394.133.547.223.154.0893.28.18.381.269.101.0907.183.167.246.231zm-7.41-.683c-.455 0-.82.191-1.09.572-.276.38-.434.931-.476 1.65h2.78c.0104-.052.0181-.129.0239-.229.005-.101.008-.209.008-.325 0-.529-.106-.939-.318-1.23-.211-.292-.518-.437-.92-.437zm2.41 1.71c0 .328-.0105.611-.0319.848-.0213.239-.0421.447-.0635.627h-3.89c.0423.899.235 1.56.579 1.98.344.423.838.635 1.48.635.222 0 .423-.0267.603-.08.18-.052.335-.116.468-.189.132-.0747.243-.149.333-.223.0901-.0747.156-.132.199-.175l.476.904c-.0531.0533-.132.131-.238.231-.106.1-.248.2-.429.301-.18.1-.402.188-.666.261-.265.0747-.577.112-.937.112-.476 0-.907-.08-1.29-.239-.386-.159-.714-.405-.984-.739-.27-.332-.479-.756-.627-1.27-.148-.513-.222-1.13-.222-1.85 0-.676.0765-1.26.23-1.75.153-.491.362-.896.627-1.21.265-.317.571-.552.92-.705.349-.155.725-.231 1.13-.231.73 0 1.3.231 1.71.689.413.461.619 1.15.619 2.07zm-9.57 4.09c.201 0 .381-.0267.54-.08.159-.052.296-.119.412-.199.117-.0787.215-.16.294-.245.0791-.084.14-.159.182-.221v-4.7c-.116-.0733-.251-.137-.405-.191-.153-.0533-.346-.0787-.579-.0787-.296 0-.574.0493-.833.151-.259.1-.484.267-.675.5-.19.232-.341.533-.452.904-.111.371-.167.825-.167 1.36 0 .529.0447.971.135 1.33.0901.355.214.64.373.857.159.216.339.372.54.468.201.0947.413.143.634.143zm-3.01-2.75c0-.772.101-1.42.302-1.94.201-.517.46-.936.778-1.25.317-.317.677-.543 1.08-.675s.804-.197 1.21-.197c.243 0 .455.0173.634.0547.18.0373.328.0827.444.135v-3.65l1.29-.144v11.4h-1.17v-.809h-.0319c-.0317.064-.0895.151-.174.261-.0844.112-.201.223-.349.333-.148.111-.333.207-.555.285-.222.08-.481.12-.778.12-.359 0-.701-.072-1.02-.215-.322-.143-.605-.371-.849-.683-.243-.312-.436-.713-.579-1.21-.143-.492-.215-1.09-.215-1.79zm-2.86 3.7v-4.9c0-.645-.108-1.11-.325-1.39-.217-.28-.547-.42-.992-.42-.381 0-.698.0947-.952.285-.254.191-.455.376-.603.556v5.87h-1.29v-7.62h1.17v.856h.0319c.0317-.0627.101-.156.206-.277.106-.121.244-.237.412-.349.169-.111.37-.208.603-.293.233-.084.497-.127.793-.127.339 0 .645.0507.92.151.275.101.508.261.699.484.19.221.339.511.444.864.106.355.158.791.158 1.31v5zm-6.12 0h-1.17v-.857h-.0317c-.0317.064-.101.156-.206.279-.106.121-.241.237-.404.348-.164.111-.363.209-.595.293-.233.0853-.492.128-.778.128-.339 0-.642-.0507-.912-.151-.27-.101-.5-.263-.691-.484-.19-.223-.335-.511-.436-.865-.101-.355-.151-.791-.151-1.31v-5h1.29v4.9c0 .635.103 1.09.309 1.36.206.271.526.405.96.405.37 0 .682-.0933.936-.279.254-.184.455-.367.603-.547v-5.84h1.29zm-8.5-3.06c0-.592-.193-1.06-.579-1.4-.386-.344-.939-.516-1.66-.516h-.936v3.84h.857c.815 0 1.4-.161 1.77-.484.365-.323.547-.801.547-1.44zm-.206-5.05c0-.508-.18-.925-.54-1.25-.359-.328-.925-.492-1.7-.492h-.73v3.78h.714c.74 0 1.3-.18 1.68-.54.381-.359.571-.856.571-1.49zm1.4-.048c0 .381-.0479.715-.143 1-.0948.285-.224.532-.389.737-.164.207-.354.373-.571.5-.217.127-.442.223-.675.285v.032c.285.0533.553.153.801.301s.466.333.651.556c.185.221.333.484.444.785.111.301.167.632.167.992 0 .433-.074.829-.222 1.19-.148.36-.378.672-.69.936-.312.265-.706.471-1.18.619s-1.04.223-1.7.223h-2.24v-10.9h2.11c.645 0 1.2.0653 1.66.197.46.133.838.321 1.13.564.296.244.51.536.643.88.132.344.198.728.198 1.15" fill="#040606"/><path d="m72.7 122h2v26.7h-4.67v-26.7h2.67" fill="#fbc617"/><path d="m72.7 95.5h2v26.8h-4.67v-26.8h2.67" fill="#ee252c"/><path d="m49.6 78.8c.0365-.299.0568-.607.0568-.923 0-.172.0016-.371-.0192-.597 2.66-.0373 4.99-1.95 4.99-4.15 0-1.12-.73-1.97-1.14-2.47.0932-.02.186-.0413.28-.0653.389.339 1.49 1.54 1.49 3.06 0 2.64-2.64 5.09-5.66 5.15zm-2.68-9.2c-.0495-.295-.161-.561-.332-.789.0084-.269.119-.527.553-.316-.234.241-.0532.665-.0532.665s.48-.223.381-.539c.711.171.2 1.13-.549.979zm-.618 1.36c-.0948-.395-.297-.8-.555-1.11-.234-.276-.622-.605-1.14-.605-.239 0-.639.112-.893.219-.0959-.172-.281-.591-.281-.779 0-.193.328-.389.952-.389 1.38 0 2.2.623 2.2 1.67 0 .365-.145.7-.277.995zm3.53 17.7c.16 0 .238.0253.33.06.396 1.08 1.92 3.11 1.99 3.2l.014.0187.0229-.0053c.374-.06 1.33-.205 2.13-.205h.0177c.0871 0 .185 0 .248.0613.0516.052.0776.144.0776.272 0 .2-.0843.539-.185.685-.281-.305-.735-.443-1.46-.443-.219 0-.478.0653-.618.101l-.0572.0133-.0657.0173.421.42c.647.647 1.21 1.21 1.21 1.58 0 .225-.218.517-.42.647-.0427-.681-.732-1.59-1.4-2.1l-.0573-.0427-.0109.239c-.0099.164-.0239.408-.0239.669 0 1.3-.132 1.49-.582 1.49-.0687 0-.174-.02-.24-.0453.253-.312.354-.725.354-1.45l-.0041-.333-.0032-.271c0-.296.0308-.516.0547-.693l.0131-.1-.0708-.0093c-.21-.0307-.602-.084-.901-.084-.641 0-1.08.0587-1.39.356-.208-.168-.421-.457-.421-.641 0-.271.169-.291.39-.291.112 0 .216.0147.36.0333.276.04.691.101 1.55.101h.0525l-.0167-.052c-.217-.62-.811-1.52-1.76-2.68.086-.309.17-.512.47-.512zm-8.23 3.19-.0172.052h.0532c.854 0 1.27-.0613 1.55-.101.145-.0187.248-.0333.36-.0333.22 0 .39.02.39.291 0 .184-.214.473-.421.641-.316-.297-.751-.356-1.39-.356-.299 0-.691.0533-.902.084l-.0328.004-.0369.0053.0119.1c.0251.177.0553.397.0553.693l-.0037.271-.0031.333c0 .727.0995 1.14.353 1.45-.0656.0253-.172.0453-.241.0453-.45 0-.581-.197-.581-1.49 0-.261-.014-.505-.0235-.669l-.0124-.24-.0573.044c-.669.511-1.36 1.42-1.4 2.1-.202-.129-.42-.421-.42-.647 0-.372.559-.931 1.21-1.58l.373-.372.0469-.048-.122-.0307c-.139-.036-.398-.101-.618-.101-.727 0-1.18.137-1.46.443-.1-.147-.185-.485-.185-.685 0-.128.0256-.22.0771-.272.0636-.0613.162-.0613.249-.0613h.0181c.8 0 1.76.145 2.13.205l.0219.0053.014-.0187c.0647-.0867 1.59-2.12 1.99-3.2.0905-.0347.17-.06.329-.06.301 0 .384.203.471.512-.955 1.16-1.55 2.06-1.77 2.68zm-4.12-18.2c0-1.52 1.1-2.72 1.49-3.06.0939.024.187.0453.28.0653-.413.504-1.14 1.35-1.14 2.47 0 2.22 2.38 4.15 5.07 4.15-.0172.191-.0265.391-.0265.596 0 .328.0176.635.0505.923-3.04-.0187-5.72-2.49-5.72-5.15zm20.4 4.68c1.36 2.16 2.43 2.12 4.05 2.12-1.34-1.02-2.22-2.33-2.64-3l-2.49-3.99c-.244-1.23-.881-2.38-1.83-3.24.321-.121.587-.249.748-.371-1.63 0-3.24-.827-4.13-.827-.571 0-.938.341-.938.792.0369.501.554 1.01 1.51 1.01.217 0 .494-.028.798-.0787.518.721.935 1.37.935 2.3 0 1.75-2.09 3.11-4.2 3.11-.119 0-.232-.0053-.352-.0147-.191-.432-.826-1.16-.826-1.99 0-1.39.905-2.52.905-3.9 0-.853-.417-1.38-.577-1.6.259-.24.542-.536.608-.737-.15.064-.328.0733-.589.0733-1.01 0-1.83-.264-2.64-.264-.457 0-.581.143-.581.277 0 .048.0077.0987.0208.124-.171-.068-.331-.111-.522-.147-.236-.0453-.492-.0667-.764-.0667-.975 0-1.32.409-1.32.759 0 .297.233.839.498 1.25.381-.191.837-.321 1.05-.321.517 0 .978.495 1.22 1.08-.348.0413-.415.0573-.767.0573-.95 0-1.6-.34-1.73-.34-.0131 0-.038.0067-.038.0267 0 .133.269.485.801.68.699.256 1.75.363 1.92.391 0 .0307-.178.363-.376.425-.0421.0147-.0749.0147-.123.0053-.731-.144-.935-.205-1.86-.559-.0287-.0107-.0453.008-.0453.0373 0 .367.949 1.18 1.8 1.49-.71.907-1.6 1.83-2.02 3.25-.118.0093-.233.0147-.352.0147-2.11 0-4.2-1.36-4.2-3.11 0-.929.418-1.58.936-2.3.304.0507.58.0787.797.0787.956 0 1.47-.512 1.51-1.01 0-.451-.367-.792-.94-.792-.888 0-2.5.827-4.13.827.161.121.428.249.748.371-.954.857-1.59 2.01-1.83 3.24l-2.49 3.99c-.42.669-1.31 1.98-2.64 3 1.61 0 2.68.036 4.05-2.12l1.28-2.05c.0948.265.211.524.348.777l-2.54 4.07c-.423.673-1.3 1.97-2.64 3 1.61 0 2.68.0373 4.05-2.12l2.19-3.5c.164.175.336.345.518.508l-3.09 4.94c-.424.676-1.3 1.97-2.64 3 1.61 0 2.68.0387 4.05-2.12l3.01-4.82c.198.124.402.247.611.361l-3.68 5.88c-.424.677-1.3 1.97-2.64 3 1.61 0 2.68.0373 4.05-2.12l3.78-6.06c.224.0867.451.169.682.243l-4.28 6.84c-.418.667-1.31 1.98-2.64 3 1.61 0 2.68.036 4.05-2.12l4.56-7.29c.0463.008.0927.016.137.0253.124.395.211.761.211 1.13 0 2.29-1.5 4.32-3.31 5.88.115.052.317.0693.503.0693.372 0 .614-.02.782-.0493-.418.949-1.32 2.18-1.77 2.81-.592-.107-1.45-.191-2.01-.191-.589 0-.656.345-.656.652 0 .536.25.961.542 1.2.108-.273.329-.64 1.42-.64.0208 0 .0583.0027.109.0067-.319.355-1.31 1.16-1.31 1.81 0 .431.471 1.07 1.09 1.07-.0369-.139-.0317-.267-.0317-.361 0-.527.465-1.14.858-1.57-.0119.128-.0061.115-.0061.264 0 1.24.112 1.81.901 1.81.387 0 .654-.212.745-.276-.512-.472-.539-.841-.539-1.54.0016-.18.0021-.357.0047-.603.0021-.159-4e-4-.369-.0265-.521.282-.04.396-.04.614-.04 0 0 1.12-.088 1.39.495.304-.28.745-.672.745-1.11 0-.285-.136-.609-.713-.609-.218 0-.905.133-1.48.133.154-.344.842-1.35 1.44-2.08.09.283.231.589.543.839.0427-.468.318-1.95 1.05-2.82.0849.585.2 1.19.2 2.46 0 3.08-.741 5.36-2.32 5.8.205.356.638.676 1.09.676.575 0 .889-.651 1.21-1.27.167.453.627 1.57 1.09 1.57s.922-1.11 1.09-1.57c.32.615.633 1.27 1.21 1.27.45 0 .884-.32 1.09-.676-1.57-.436-2.32-2.71-2.32-5.8 0-1.27.115-1.87.2-2.46.734.867 1.01 2.35 1.05 2.82.313-.249.454-.556.544-.839.595.729 1.28 1.73 1.44 2.08-.576 0-1.26-.133-1.48-.133-.576 0-.713.324-.713.609 0 .435.442.827.746 1.11.269-.583 1.39-.495 1.39-.495.217 0 .331 0 .614.04-.0267.152-.0281.363-.0272.521.0027.245.0037.423.0043.603 0 .697-.0261 1.07-.538 1.54.0923.064.359.276.745.276.789 0 .901-.571.901-1.81 0-.149.0047-.136-.0057-.264.393.428.858 1.04.858 1.57 0 .0947.0052.223-.0328.361.621 0 1.09-.644 1.09-1.07 0-.647-.996-1.45-1.32-1.81.0515-.004.0885-.0067.109-.0067 1.09 0 1.31.367 1.42.64.291-.237.541-.663.541-1.2 0-.307-.0661-.652-.655-.652-.563 0-1.42.084-2.01.191-.454-.636-1.35-1.86-1.77-2.81.169.0293.41.0493.782.0493.187 0 .387-.0173.503-.0693-1.81-1.56-3.31-3.59-3.31-5.88 0-.368.0869-.735.211-1.13.0448-.0093.0916-.0173.137-.0253l4.56 7.29c1.36 2.16 2.43 2.12 4.05 2.12-1.33-1.02-2.22-2.33-2.64-3l-4.28-6.84c.232-.0733.459-.156.683-.243l3.78 6.06c1.36 2.16 2.43 2.12 4.05 2.12-1.34-1.03-2.22-2.32-2.64-3l-3.68-5.88c.209-.115.413-.237.61-.361l3.01 4.82c1.37 2.16 2.43 2.12 4.05 2.12-1.34-1.03-2.21-2.32-2.64-3l-3.09-4.94c.182-.163.355-.333.517-.508l2.19 3.5c1.36 2.16 2.43 2.12 4.05 2.12-1.34-1.03-2.22-2.33-2.64-3l-2.54-4.07c.137-.253.253-.512.348-.777l1.28 2.05" fill="#040606"/><path d="m74.7 69v26.7h-4.67v-26.7h4.67" fill="#040606"/><path d="m37.8 30.8c-.294-.195-.939-.435-1.71-.435-1.71 0-3.37 1.12-3.37 4.02 0 2.8 1.3 4.19 3.15 4.19.672 0 1.2-.125 1.61-.279v-2.79l-.854-.195c-.141-.0293-.196-.0707-.196-.153 0-.128.0975-.295.155-.423h3.19s.0145.0867.0145.155c0 .224-.127.392-.475.492l-.323.0827v2.92c-.378.336-1.41 1.09-3.47 1.09-2.46 0-4.39-1.53-4.39-4.93 0-3.64 2.7-5.07 5.02-5.07 1.48 0 2.23.419 2.69.629.0416.42.0848 1.29.0848 1.4 0 .435-.127.713-.491.713-.112 0-.224-.0267-.321-.0547l-.307-1.37" fill="#040606"/><path d="m44.6 35.2c.0276-.125.0703-.365.0703-.603 0-.771-.281-1.43-1.09-1.43-.826 0-1.32.656-1.41 2.03zm-2.45.741c.0145 1.74.841 2.55 2.04 2.55.896 0 1.4-.348 1.75-.643.14.112.21.349.21.476 0 .349-.923 1.15-2.48 1.15-1.72 0-3.01-.981-3.01-3.42 0-2.43 1.47-3.68 3.07-3.68 1.58 0 2.38.965 2.38 2.37 0 .363-.0703.855-.168 1.2h-3.79" fill="#040606"/><path d="m51.3 33.3h-1.71v5.24l.952.183c.139.0267.196.0693.196.181 0 .139-.0989.351-.141.392h-3.33s-.0141-.084-.0141-.125c0-.252.168-.364.433-.464l.477-.167v-5.24h-1.04s-.014-.084-.014-.125c0-.265.168-.407.433-.477l.617-.167v-.14c0-2.25 1.37-3.35 2.58-3.35.699 0 .979.309.979.741 0 .352-.209.547-.419.659-.126-.14-.491-.407-.924-.407-.602 0-.813.336-.813 1.16 0 .436.0287 1.33.0287 1.33h1.86l-.154.769" fill="#040606"/><path d="m56.5 31.4c-.448 0-.769-.309-.769-.756 0-.476.321-.784.769-.784.421 0 .742.308.742.784 0 .447-.321.756-.742.756zm-3.08 4.51c0 1.88.755 2.72 1.79 2.72 1.04 0 1.8-.812 1.8-2.69 0-1.87-.769-2.74-1.8-2.74-1.04 0-1.79.828-1.79 2.72zm.546-4.51c-.421 0-.757-.309-.757-.756 0-.476.336-.784.757-.784.433 0 .755.308.755.784 0 .447-.322.756-.755.756zm4.55 4.45c0 2.42-1.69 3.61-3.4 3.61-1.75 0-3.19-1.12-3.19-3.47 0-2.37 1.68-3.63 3.46-3.63 1.75 0 3.14 1.05 3.14 3.49" fill="#040606"/><path d="m61.7 33.6h.0416c.294-.476.813-1.29 1.72-1.29.659 0 .966.309.966.741 0 .308-.139.576-.251.713-.112-.0547-.463-.208-.939-.208-.769 0-1.16.308-1.46.713v4.21l1.01.183c.141.0267.197.0693.197.181 0 .139-.112.351-.14.392h-3.39s-.0141-.084-.0141-.125c0-.252.168-.364.433-.464l.491-.167v-5.18l-.994-.155s-.0141-.0827-.0141-.14c0-.237.181-.407.517-.433l1.9-.181-.0833 1.2" fill="#040606"/><path d="m69.6 33.6c-.21-.196-.589-.42-1.18-.42-1.13 0-1.97.813-1.97 2.66 0 1.81.784 2.53 1.72 2.53.813 0 1.25-.377 1.43-.588zm1.41 4.89 1.02.14s.014.0547.014.112c0 .252-.182.42-.518.448l-1.85.167v-.908h-.0416c-.309.433-.896.993-1.99.993-1.37 0-2.66-.881-2.66-3.32 0-2.6 1.82-3.78 3.61-3.78.405 0 .755.0693.994.127v-2.45l-.994-.14s-.014-.096-.014-.153c0-.237.181-.407.517-.433l1.9-.181v9.38" fill="#040606"/><path d="m76.8 35.2c.0272-.125.0688-.365.0688-.603 0-.771-.279-1.43-1.09-1.43-.825 0-1.32.656-1.41 2.03zm-2.45.741c.0131 1.74.839 2.55 2.04 2.55.896 0 1.4-.348 1.75-.643.139.112.209.349.209.476 0 .349-.925 1.15-2.48 1.15-1.72 0-3.01-.981-3.01-3.42 0-2.43 1.47-3.68 3.07-3.68 1.58 0 2.38.965 2.38 2.37 0 .363-.0703.855-.168 1.2h-3.79" fill="#040606"/><path d="m81.6 33.6h.0417c.294-.476.813-1.29 1.72-1.29.659 0 .966.309.966.741 0 .308-.139.576-.251.713-.112-.0547-.462-.208-.939-.208-.769 0-1.16.308-1.46.713v4.21l1.01.183c.141.0267.197.0693.197.181 0 .139-.112.351-.14.392h-3.39s-.0141-.084-.0141-.125c0-.252.168-.364.433-.464l.491-.167v-5.18l-.994-.155s-.0141-.0827-.0141-.14c0-.237.181-.407.517-.433l1.9-.181-.0833 1.2" fill="#040606"/><path d="m89 33.3h-1.92v4.09c0 .631.195 1.15.896 1.15.546 0 .994-.239 1.11-.336.0704.112.126.321.126.461 0 .141-.49.799-1.76.799-1.27 0-1.78-.741-1.78-1.82v-4.34h-1.05s-.014-.084-.014-.125c0-.265.168-.42.433-.477l.686-.167.321-1.89h1.04v1.89h2.07l-.155.769" fill="#040606"/><path d="m97.4 33.6c-.211-.196-.589-.42-1.18-.42-1.13 0-1.97.813-1.97 2.66 0 1.81.784 2.53 1.72 2.53.813 0 1.25-.377 1.43-.588zm1.41 4.89 1.02.14s.0145.0547.0145.112c0 .252-.182.42-.518.448l-1.85.167v-.908h-.0416c-.307.433-.896.993-1.99.993-1.37 0-2.66-.881-2.66-3.32 0-2.6 1.82-3.78 3.61-3.78.406 0 .757.0693.995.127v-2.45l-.995-.14s-.0129-.096-.0129-.153c0-.237.182-.407.518-.433l1.9-.181v9.38" fill="#040606"/><path d="m107 38.5 1.02.14s.014.0547.014.112c0 .252-.182.42-.518.448l-1.85.167v-.923h-.0276c-.224.293-.839 1.01-2.07 1.01-1.5 0-2.2-.881-2.2-2.53v-3.57l-.993-.155s-.0145-.0827-.0145-.14c0-.237.182-.407.518-.433l1.9-.181v4.41c0 1.27.672 1.57 1.29 1.57.714 0 1.19-.308 1.51-.671v-4.4l-.994-.155s-.0131-.0827-.0131-.14c0-.237.182-.407.518-.433l1.9-.181v6.06" fill="#040606"/><path d="m111 33.6h.0423c.294-.476.812-1.29 1.72-1.29.657 0 .965.309.965.741 0 .308-.139.576-.251.713-.112-.0547-.462-.208-.937-.208-.771 0-1.16.308-1.46.713v4.21l1.01.183c.139.0267.195.0693.195.181 0 .139-.112.351-.141.392h-3.39s-.0141-.084-.0141-.125c0-.252.168-.364.435-.464l.49-.167v-5.18l-.995-.155s-.0131-.0827-.0131-.14c0-.237.182-.407.518-.433l1.9-.181-.0849 1.2" fill="#040606"/><path d="m117 33.2c-.937 0-1.75.672-1.75 2.51 0 1.76.686 2.79 2 2.79.867 0 1.37-.448 1.59-.672.127.125.225.349.225.475 0 .351-.77 1.16-2.31 1.16-1.82 0-3-1.15-3-3.46 0-2.37 1.58-3.64 3.47-3.64 1.54 0 1.93.757 1.93 1.16 0 .38-.181.729-.713.84-.21-.489-.531-1.16-1.46-1.16" fill="#040606"/><path d="m123 33.4h.0271c.28-.336.952-1.01 2.16-1.01 1.4 0 2.2.825 2.2 2.46v3.71l.813.183c.141.0267.195.0693.195.181 0 .139-.112.351-.139.392h-3.18s-.0141-.084-.0141-.125c0-.252.168-.379.433-.464l.463-.167v-3.54c0-1.19-.643-1.55-1.36-1.55-.867 0-1.33.377-1.59.644v4.45l.784.183c.139.0267.195.0693.195.181 0 .139-.0973.351-.139.392h-3.18s-.0131-.084-.0131-.125c0-.252.168-.379.434-.464l.489-.167v-8.5l-.993-.14s-.0147-.096-.0147-.153c0-.237.182-.407.519-.433l1.92-.181v4.24" fill="#040606"/><path d="m130 39.5c-.489 0-.867-.336-.867-.855 0-.532.378-.867.867-.867.491 0 .883.335.883.867 0 .519-.392.855-.883.855zm0-5.39c-.489 0-.867-.336-.867-.852 0-.535.378-.869.867-.869.491 0 .883.335.883.869 0 .516-.392.852-.883.852" fill="#040606"/><path d="m34.4 186c-1.13.0557-1.78.463-1.78 1.21 0 .586.336.979.91.979.574 0 1.01-.377 1.19-.602v-1.59zm1.74 1.53c0 .56.209.728.448.728.321 0 .49-.168.531-.239.0704.0989.168.295.168.421 0 .182-.363.727-1.27.727-.644 0-1.05-.28-1.18-.98h-.0287c-.154.267-.672 1.01-1.83 1.01-1.06 0-1.82-.728-1.82-1.83 0-1.5 1.64-2.06 3.21-2.06h.365v-.631c0-1.27-.336-1.78-1.2-1.78-.321 0-.602.0984-.713.14-.126.267-.238.756-.308 1.23 0 0-.21.0136-.322.0136-.475 0-.741-.224-.741-.657 0-.868 1.15-1.53 2.45-1.53 1.54 0 2.25.84 2.25 2.42v3.01" fill="#040606"/><path d="m44.1 188 1.02.141s.0147.0557.0147.112c0 .251-.182.419-.518.447l-1.85.168v-.924h-.0271c-.224.295-.84 1.01-2.07 1.01-1.5 0-2.2-.881-2.2-2.53v-3.57l-.993-.153s-.0147-.0837-.0147-.14c0-.239.182-.407.518-.434l1.9-.182v4.41c0 1.27.672 1.57 1.29 1.57.713 0 1.19-.309 1.51-.672v-4.4l-.993-.153s-.0145-.0837-.0145-.14c0-.239.181-.407.517-.434l1.9-.182v6.06" fill="#040606"/><path d="m49.9 183h-1.71v5.24l.951.181c.14.0281.197.0692.197.181 0 .14-.0989.351-.141.392h-3.33s-.0147-.0839-.0147-.126c0-.252.168-.364.434-.461l.477-.168v-5.24h-1.04s-.0145-.0844-.0145-.125c0-.267.168-.407.434-.476l.617-.168v-.14c0-2.25 1.37-3.35 2.58-3.35.699 0 .979.309.979.743 0 .351-.21.545-.419.657-.127-.139-.491-.405-.925-.405-.601 0-.812.336-.812 1.16 0 .433.0287 1.33.0287 1.33h1.86l-.154.769" fill="#040606"/><path d="m52.2 184c0 1.11.56 1.54 1.26 1.54.755 0 1.3-.433 1.3-1.54 0-.993-.546-1.5-1.27-1.5-.728 0-1.29.418-1.29 1.5zm.616 4.62c-.195 0-.363-.0131-.518-.0276-.364.21-.602.56-.602 1.04 0 .728.448 1.19 1.47 1.19 1.36 0 2.2-.629 2.2-1.37 0-.575-.321-.827-1.04-.827zm4.03-5.91h-1.13c.266.351.433.769.433 1.27 0 1.49-1.23 2.33-2.76 2.33-.238 0-.448-.0292-.657-.0708-.197.112-.392.307-.392.63 0 .336.224.491.699.491h1.62c1.29 0 2.02.587 2.02 1.59 0 1.4-1.37 2.69-3.74 2.69-1.72 0-2.56-.603-2.56-1.62 0-.98.769-1.44 1.27-1.6v-.0281c-.365-.195-.575-.531-.575-.979 0-.813.742-1.19 1.01-1.33v-.0291c-.784-.351-1.29-1.06-1.29-2.07 0-1.47 1.23-2.24 2.66-2.24.378 0 .741.0563 1.09.168h2.45l-.154.797" fill="#040606"/><path d="m59.9 183h.0417c.294-.474.813-1.29 1.72-1.29.659 0 .966.308.966.741 0 .308-.14.575-.252.714-.112-.0557-.462-.209-.939-.209-.77 0-1.16.308-1.46.713v4.21l1.01.181c.141.0281.196.0692.196.181 0 .14-.112.351-.139.392h-3.39s-.0147-.0839-.0147-.126c0-.252.168-.364.434-.461l.491-.168v-5.18l-.993-.153s-.0147-.0837-.0147-.14c0-.239.181-.407.517-.434l1.9-.182-.0833 1.2" fill="#040606"/><path d="m69.5 188 1.02.141s.0141.0557.0141.112c0 .251-.182.419-.518.447l-1.85.168v-.924h-.0276c-.224.295-.84 1.01-2.07 1.01-1.5 0-2.2-.881-2.2-2.53v-3.57l-.994-.153s-.0141-.0837-.0141-.14c0-.239.182-.407.518-.434l1.9-.182v4.41c0 1.27.672 1.57 1.29 1.57.713 0 1.19-.309 1.51-.672v-4.4l-.995-.153s-.0131-.0837-.0131-.14c0-.239.182-.407.518-.434l1.9-.182v6.06" fill="#040606"/><path d="m78 188 .826.181c.141.0281.196.0692.196.181 0 .14-.112.351-.139.392h-3.18s-.014-.0839-.014-.126c0-.252.169-.379.435-.461l.461-.168v-3.54c0-1.19-.672-1.55-1.36-1.55-.798 0-1.32.377-1.61.616v4.48l.797.181c.141.0281.196.0692.196.181 0 .14-.112.351-.141.392h-3.18s-.014-.0839-.014-.126c0-.252.168-.364.435-.461l.49-.168v-5.18l-.995-.153s-.0129-.0837-.0129-.14c0-.239.182-.407.518-.434l1.9-.182-.0849.98h.0416c.379-.407 1.01-1.06 2.3-1.06 1.37 0 2.13.881 2.13 2.46v3.71" fill="#040606"/><path d="m84.3 183c-.209-.196-.589-.42-1.18-.42-1.13 0-1.97.812-1.97 2.66 0 1.8.784 2.53 1.72 2.53.812 0 1.25-.377 1.43-.586zm1.41 4.88 1.02.141s.0147.0557.0147.112c0 .251-.182.419-.518.447l-1.85.168v-.909h-.0417c-.308.433-.896.993-1.99.993-1.37 0-2.66-.881-2.66-3.32 0-2.61 1.82-3.78 3.61-3.78.405 0 .755.0692.993.125v-2.45l-.993-.14s-.0145-.0973-.0145-.153c0-.239.181-.407.517-.433l1.9-.183v9.38" fill="#040606"/><path d="m94.4 185c.0276-.127.0692-.366.0692-.603 0-.771-.279-1.43-1.09-1.43-.826 0-1.32.657-1.41 2.03zm-2.45.74c.0129 1.74.839 2.55 2.04 2.55.896 0 1.4-.351 1.75-.645.14.112.21.351.21.478 0 .349-.925 1.15-2.48 1.15-1.72 0-3.01-.979-3.01-3.42 0-2.43 1.47-3.68 3.07-3.68 1.58 0 2.38.966 2.38 2.37 0 .364-.0704.855-.168 1.2h-3.79" fill="#040606"/><path d="m98.6 181c-.517 0-.91-.349-.91-.896 0-.531.393-.896.91-.896.504 0 .925.366.925.896 0 .546-.42.896-.925.896zm.715 7.48.825.181c.139.0281.195.0692.195.181 0 .14-.112.351-.14.392h-3.21s-.014-.0839-.014-.126c0-.252.168-.364.435-.461l.49-.168v-5.18l-.995-.153s-.0129-.0837-.0129-.14c0-.239.182-.407.518-.434l1.9-.182v6.09" fill="#040606"/><path d="m108 188 .826.181c.141.0281.196.0692.196.181 0 .14-.112.351-.139.392h-3.18s-.0141-.0839-.0141-.126c0-.252.169-.379.435-.461l.461-.168v-3.54c0-1.19-.672-1.55-1.36-1.55-.798 0-1.32.377-1.61.616v4.48l.797.181c.141.0281.196.0692.196.181 0 .14-.112.351-.141.392h-3.18s-.014-.0839-.014-.126c0-.252.168-.364.435-.461l.489-.168v-5.18l-.995-.153s-.0131-.0837-.0131-.14c0-.239.182-.407.518-.434l1.9-.182-.0849.98h.0417c.379-.407 1.01-1.06 2.3-1.06 1.37 0 2.13.881 2.13 2.46v3.71" fill="#040606"/><path d="m113 185c.0271-.127.0703-.366.0703-.603 0-.771-.281-1.43-1.09-1.43-.826 0-1.32.657-1.41 2.03zm-2.45.74c.014 1.74.841 2.55 2.04 2.55.896 0 1.4-.351 1.75-.645.139.112.209.351.209.478 0 .349-.923 1.15-2.48 1.15-1.72 0-3.01-.979-3.01-3.42 0-2.43 1.47-3.68 3.07-3.68 1.58 0 2.38.966 2.38 2.37 0 .364-.0703.855-.168 1.2h-3.79" fill="#040606"/><path d="m119 183c-.154-.112-.504-.28-.925-.28-.461 0-.937.196-.937.784 0 .616.657.979 1.33 1.37.84.504 1.74 1.05 1.74 2.17 0 1.15-.952 2.02-2.49 2.02-.784 0-1.48-.237-1.78-.42-.0572-.349-.0989-.714-.0989-1.08 0-.56.154-.784.574-.784.0703 0 .182.0145.182.0145l.293 1.19c.141.0985.547.28.953.28.685 0 1.12-.267 1.12-.854 0-.603-.672-.938-1.3-1.33-.854-.548-1.71-1.09-1.71-2.3 0-1.09.952-1.82 2.3-1.82.813 0 1.39.28 1.64.517.0276.196.0563.491.0563.769 0 .491-.0979.814-.602.814-.0703 0-.168-.0147-.168-.0147l-.168-1.05" fill="#040606"/><path d="m128 184h-.925v3.61h.841c1.64 0 2.36-.77 2.36-1.86 0-1.04-.77-1.75-2.28-1.75zm-.168-4.34h-.756v3.53h.742c1.6 0 2.27-.784 2.27-1.78 0-1.15-.713-1.75-2.25-1.75zm1.79 3.81v.0265c1.36.224 2.25.994 2.25 2.27 0 1.57-1.29 2.7-3.81 2.7h-3.56s-.014-.0839-.014-.154c0-.224.112-.42.477-.504l.589-.14v-8.09l-.854-.196c-.141-.0281-.197-.0699-.197-.155 0-.126.098-.292.155-.419h3.29c2.49 0 3.68.881 3.68 2.43 0 1.33-.811 1.96-2.02 2.23" fill="#040606"/><path d="m137 185c.0267-.127.0693-.366.0693-.603 0-.771-.28-1.43-1.09-1.43-.825 0-1.32.657-1.41 2.03zm-2.45.74c.0147 1.74.841 2.55 2.04 2.55.896 0 1.4-.351 1.75-.645.139.112.209.351.209.478 0 .349-.924 1.15-2.48 1.15-1.72 0-3.01-.979-3.01-3.42 0-2.43 1.47-3.68 3.06-3.68 1.58 0 2.38.966 2.38 2.37 0 .364-.0707.855-.168 1.2h-3.79" fill="#040606"/><path d="m143 183c-.156-.112-.504-.28-.925-.28-.461 0-.937.196-.937.784 0 .616.657.979 1.33 1.37.84.504 1.74 1.05 1.74 2.17 0 1.15-.952 2.02-2.49 2.02-.784 0-1.48-.237-1.78-.42-.0547-.349-.0973-.714-.0973-1.08 0-.56.155-.784.573-.784.0707 0 .183.0145.183.0145l.295 1.19c.139.0985.545.28.951.28.685 0 1.12-.267 1.12-.854 0-.603-.671-.938-1.3-1.33-.855-.548-1.71-1.09-1.71-2.3 0-1.09.951-1.82 2.29-1.82.813 0 1.39.28 1.64.517.028.196.056.491.056.769 0 .491-.0973.814-.601.814-.0707 0-.168-.0147-.168-.0147l-.168-1.05" fill="#040606"/><path d="m149 183c-.937 0-1.75.671-1.75 2.5 0 1.77.687 2.79 2 2.79.868 0 1.37-.448 1.6-.672.125.125.224.349.224.476 0 .351-.771 1.16-2.31 1.16-1.82 0-3-1.15-3-3.46 0-2.37 1.58-3.64 3.47-3.64 1.54 0 1.93.756 1.93 1.16 0 .379-.181.728-.713.84-.211-.491-.532-1.16-1.46-1.16" fill="#040606"/><path d="m154 183h.028c.28-.336.952-1.01 2.16-1.01 1.4 0 2.2.825 2.2 2.46v3.71l.812.181c.14.0281.195.0692.195.181 0 .14-.112.351-.139.392h-3.18s-.0147-.0839-.0147-.126c0-.252.168-.379.435-.461l.461-.168v-3.54c0-1.19-.643-1.55-1.36-1.55-.868 0-1.33.377-1.6.644v4.45l.784.181c.14.0281.196.0692.196.181 0 .14-.0987.351-.14.392h-3.18s-.012-.0839-.012-.126c0-.252.168-.379.433-.461l.489-.168v-8.5l-.993-.14s-.0147-.0973-.0147-.153c0-.239.183-.407.519-.433l1.92-.183v4.24" fill="#040606"/><path d="m162 188 .812.181c.14.0281.196.0692.196.181 0 .14-.0973.351-.139.392h-3.19s-.0133-.0839-.0133-.126c0-.252.168-.379.433-.461l.491-.168v-8.5l-.993-.14s-.0147-.0973-.0147-.153c0-.239.183-.407.517-.433l1.9-.183v9.41" fill="#040606"/><path d="m170 188 1.02.141s.0147.0557.0147.112c0 .251-.183.419-.519.447l-1.85.168v-.924h-.028c-.224.295-.84 1.01-2.07 1.01-1.5 0-2.2-.881-2.2-2.53v-3.57l-.993-.153s-.0147-.0837-.0147-.14c0-.239.183-.407.519-.434l1.9-.182v4.41c0 1.27.672 1.57 1.29 1.57.715 0 1.19-.309 1.51-.672v-4.4l-.995-.153s-.0133-.0837-.0133-.14c0-.239.183-.407.519-.434l1.9-.182v6.06" fill="#040606"/><path d="m175 183c-.155-.112-.504-.28-.924-.28-.463 0-.937.196-.937.784 0 .616.657.979 1.33 1.37.84.504 1.73 1.05 1.73 2.17 0 1.15-.951 2.02-2.49 2.02-.784 0-1.48-.237-1.78-.42-.0547-.349-.0973-.714-.0973-1.08 0-.56.155-.784.575-.784.0693 0 .181.0145.181.0145l.295 1.19c.14.0985.545.28.951.28.687 0 1.12-.267 1.12-.854 0-.603-.672-.938-1.3-1.33-.853-.548-1.71-1.09-1.71-2.3 0-1.09.952-1.82 2.3-1.82.812 0 1.39.28 1.64.517.0293.196.056.491.056.769 0 .491-.0973.814-.601.814-.0707 0-.168-.0147-.168-.0147l-.168-1.05" fill="#040606"/><path d="m181 183c-.155-.112-.504-.28-.925-.28-.461 0-.937.196-.937.784 0 .616.657.979 1.33 1.37.84.504 1.74 1.05 1.74 2.17 0 1.15-.952 2.02-2.49 2.02-.784 0-1.48-.237-1.78-.42-.0547-.349-.0973-.714-.0973-1.08 0-.56.155-.784.573-.784.0707 0 .183.0145.183.0145l.295 1.19c.139.0985.545.28.951.28.685 0 1.12-.267 1.12-.854 0-.603-.672-.938-1.3-1.33-.855-.548-1.71-1.09-1.71-2.3 0-1.09.952-1.82 2.29-1.82.813 0 1.39.28 1.64.517.028.196.056.491.056.769 0 .491-.0973.814-.601.814-.0707 0-.168-.0147-.168-.0147l-.168-1.05" fill="#040606"/><path d="m187 185c.028-.127.0707-.366.0707-.603 0-.771-.281-1.43-1.09-1.43-.825 0-1.32.657-1.41 2.03zm-2.45.74c.0133 1.74.84 2.55 2.04 2.55.896 0 1.4-.351 1.75-.645.14.112.209.351.209.478 0 .349-.923 1.15-2.48 1.15-1.72 0-3.01-.979-3.01-3.42 0-2.43 1.47-3.68 3.07-3.68 1.58 0 2.38.966 2.38 2.37 0 .364-.0707.855-.168 1.2h-3.79" fill="#040606"/><path d="m193 183c-.155-.112-.504-.28-.924-.28-.463 0-.937.196-.937.784 0 .616.657.979 1.33 1.37.84.504 1.74 1.05 1.74 2.17 0 1.15-.952 2.02-2.49 2.02-.783 0-1.48-.237-1.78-.42-.056-.349-.0987-.714-.0987-1.08 0-.56.155-.784.575-.784.0707 0 .183.0145.183.0145l.293 1.19c.14.0985.547.28.951.28.687 0 1.12-.267 1.12-.854 0-.603-.672-.938-1.3-1.33-.853-.548-1.71-1.09-1.71-2.3 0-1.09.952-1.82 2.3-1.82.812 0 1.39.28 1.64.517.0293.196.056.491.056.769 0 .491-.0973.814-.601.814-.0693 0-.168-.0147-.168-.0147l-.168-1.05" fill="#040606"/><path d="m35.8 199c-.211-.196-.589-.419-1.18-.419-1.13 0-1.97.811-1.97 2.66 0 1.81.784 2.53 1.72 2.53.813 0 1.25-.377 1.43-.588zm1.41 4.89 1.02.141s.0141.0547.0141.111c0 .252-.182.42-.518.448l-1.85.167v-.908h-.0417c-.307.433-.896.993-1.99.993-1.37 0-2.66-.881-2.66-3.32 0-2.6 1.82-3.78 3.61-3.78.406 0 .756.0677.995.125v-2.45l-.995-.139s-.0131-.0975-.0131-.155c0-.237.182-.405.518-.433l1.9-.181v9.38" fill="#040606"/><path d="m43 201c.0271-.126.0703-.364.0703-.602 0-.77-.281-1.43-1.09-1.43-.826 0-1.32.657-1.41 2.03zm-2.45.741c.014 1.74.841 2.55 2.04 2.55.896 0 1.4-.349 1.75-.644.139.112.209.351.209.477 0 .348-.923 1.15-2.48 1.15-1.72 0-3.01-.98-3.01-3.42 0-2.43 1.47-3.68 3.07-3.68 1.58 0 2.38.964 2.38 2.37 0 .364-.0704.853-.168 1.2h-3.79" fill="#040606"/><path d="m48.9 199c-.154-.112-.504-.28-.925-.28-.461 0-.937.197-.937.784 0 .616.657.98 1.33 1.37.84.504 1.74 1.05 1.74 2.17 0 1.15-.952 2.02-2.49 2.02-.784 0-1.48-.239-1.78-.421-.0573-.348-.0989-.714-.0989-1.08 0-.56.154-.784.574-.784.0704 0 .182.0145.182.0145l.293 1.19c.141.0985.547.28.953.28.685 0 1.12-.266 1.12-.854 0-.603-.672-.938-1.3-1.33-.854-.547-1.71-1.09-1.71-2.3 0-1.09.952-1.82 2.3-1.82.813 0 1.39.28 1.64.516.0276.197.0563.491.0563.771 0 .491-.0979.812-.601.812-.0704 0-.168-.0147-.168-.0147l-.168-1.05" fill="#040606"/><path d="m57.3 196h-.56v7.95h.56c2.59 0 4.07-1.36 4.07-4.07 0-2.62-1.5-3.88-4.07-3.88zm.0427 8.81h-3.16s-.0141-.0837-.0141-.153c0-.224.112-.421.477-.504l.589-.141v-8.09l-.854-.197c-.141-.0271-.197-.0683-.197-.154 0-.127.0979-.293.155-.42h3.01c3.53 0 5.64 1.32 5.64 4.69 0 3.4-2.1 4.97-5.64 4.97" fill="#040606"/><path d="m68.2 201c.0271-.126.0703-.364.0703-.602 0-.77-.281-1.43-1.09-1.43-.825 0-1.32.657-1.41 2.03zm-2.45.741c.0141 1.74.841 2.55 2.04 2.55.896 0 1.4-.349 1.75-.644.139.112.209.351.209.477 0 .348-.923 1.15-2.48 1.15-1.72 0-3.01-.98-3.01-3.42 0-2.43 1.47-3.68 3.07-3.68 1.58 0 2.38.964 2.38 2.37 0 .364-.0703.853-.168 1.2h-3.79" fill="#040606"/><path d="m77.1 204 1.02.141s.014.0547.014.111c0 .252-.182.42-.518.448l-1.85.167v-.922h-.0276c-.224.294-.84 1.01-2.07 1.01-1.5 0-2.2-.881-2.2-2.53v-3.57l-.994-.154s-.014-.0848-.014-.141c0-.238.182-.407.518-.433l1.9-.183v4.41c0 1.27.672 1.57 1.29 1.57.714 0 1.19-.309 1.51-.672v-4.4l-.995-.154s-.0131-.0848-.0131-.141c0-.238.182-.407.518-.433l1.9-.183v6.06" fill="#040606"/><path d="m82.9 199h-1.92v4.09c0 .631.195 1.15.896 1.15.546 0 .994-.239 1.11-.336.0704.112.126.321.126.46 0 .141-.491.798-1.76.798-1.27 0-1.78-.743-1.78-1.82v-4.34h-1.05s-.014-.0855-.014-.127c0-.265.168-.419.433-.475l.686-.168.321-1.89h1.04v1.89h2.07l-.154.769" fill="#040606"/><path d="m87 199c-.154-.112-.504-.28-.925-.28-.461 0-.937.197-.937.784 0 .616.657.98 1.33 1.37.84.504 1.74 1.05 1.74 2.17 0 1.15-.952 2.02-2.49 2.02-.784 0-1.48-.239-1.78-.421-.0573-.348-.0989-.714-.0989-1.08 0-.56.154-.784.574-.784.0704 0 .182.0145.182.0145l.293 1.19c.141.0985.547.28.953.28.685 0 1.12-.266 1.12-.854 0-.603-.672-.938-1.3-1.33-.854-.547-1.71-1.09-1.71-2.3 0-1.09.952-1.82 2.3-1.82.813 0 1.39.28 1.64.516.0276.197.0563.491.0563.771 0 .491-.0979.812-.601.812-.0704 0-.168-.0147-.168-.0147l-.168-1.05" fill="#040606"/><path d="m92.6 199c-.937 0-1.75.671-1.75 2.5 0 1.76.685 2.79 2 2.79.867 0 1.37-.448 1.6-.672.126.127.224.351.224.477 0 .351-.77 1.16-2.31 1.16-1.82 0-2.99-1.15-2.99-3.46 0-2.37 1.58-3.64 3.47-3.64 1.54 0 1.93.755 1.93 1.16 0 .378-.182.728-.715.84-.209-.491-.531-1.16-1.46-1.16" fill="#040606"/><path d="m97.8 199h.0272c.28-.334.952-1.01 2.16-1.01 1.4 0 2.2.825 2.2 2.46v3.71l.813.18c.141.0292.195.0708.195.183 0 .139-.112.351-.14.392h-3.18s-.0141-.0837-.0141-.127c0-.251.168-.377.433-.461l.463-.167v-3.54c0-1.19-.643-1.55-1.36-1.55-.867 0-1.33.379-1.59.645v4.45l.784.18c.139.0292.195.0708.195.183 0 .139-.0979.351-.14.392h-3.18s-.0129-.0837-.0129-.127c0-.251.168-.377.433-.461l.49-.167v-8.5l-.993-.139s-.0145-.0975-.0145-.155c0-.237.182-.405.518-.433l1.92-.181v4.24" fill="#040606"/><path d="m108 201c.0276-.126.0692-.364.0692-.602 0-.77-.279-1.43-1.09-1.43-.826 0-1.32.657-1.41 2.03zm-2.45.741c.0131 1.74.839 2.55 2.04 2.55.896 0 1.4-.349 1.75-.644.14.112.21.351.21.477 0 .348-.925 1.15-2.48 1.15-1.72 0-3.01-.98-3.01-3.42 0-2.43 1.47-3.68 3.07-3.68 1.58 0 2.38.964 2.38 2.37 0 .364-.0703.853-.168 1.2h-3.79" fill="#040606"/><path d="m117 204 .827.18c.139.0292.195.0708.195.183 0 .139-.112.351-.141.392h-3.18s-.0129-.0837-.0129-.127c0-.251.167-.377.433-.461l.462-.167v-3.54c0-1.19-.672-1.55-1.36-1.55-.798 0-1.32.379-1.61.617v4.48l.798.18c.141.0292.197.0708.197.183 0 .139-.112.351-.141.392h-3.18s-.0147-.0837-.0147-.127c0-.251.168-.363.434-.461l.491-.167v-5.18l-.993-.154s-.0147-.0848-.0147-.141c0-.238.181-.407.517-.433l1.9-.183-.0833.98h.0416c.378-.405 1.01-1.06 2.3-1.06 1.37 0 2.13.881 2.13 2.46v3.71" fill="#040606"/><path d="m125 200h-.924v3.61h.841c1.64 0 2.36-.769 2.36-1.86 0-1.04-.77-1.75-2.28-1.75zm-.168-4.34h-.756v3.53h.742c1.6 0 2.27-.784 2.27-1.78 0-1.15-.714-1.75-2.25-1.75zm1.79 3.81v.0276c1.36.224 2.25.993 2.25 2.27 0 1.57-1.29 2.7-3.81 2.7h-3.56s-.0141-.0837-.0141-.153c0-.224.112-.421.477-.504l.589-.141v-8.09l-.854-.197c-.141-.0271-.197-.0683-.197-.154 0-.127.0979-.293.155-.42h3.29c2.49 0 3.68.882 3.68 2.44 0 1.33-.811 1.96-2.02 2.23" fill="#040606"/><path d="m137 204 1.02.141s.0147.0547.0147.111c0 .252-.183.42-.519.448l-1.85.167v-.922h-.0267c-.224.294-.84 1.01-2.07 1.01-1.5 0-2.2-.881-2.2-2.53v-3.57l-.993-.154s-.0147-.0848-.0147-.141c0-.238.182-.407.518-.433l1.9-.183v4.41c0 1.27.672 1.57 1.29 1.57.713 0 1.19-.309 1.51-.672v-4.4l-.993-.154s-.0147-.0848-.0147-.141c0-.238.181-.407.517-.433l1.9-.183v6.06" fill="#040606"/><path d="m145 204 .825.18c.14.0292.196.0708.196.183 0 .139-.112.351-.139.392h-3.18s-.0147-.0837-.0147-.127c0-.251.169-.377.435-.461l.461-.167v-3.54c0-1.19-.672-1.55-1.36-1.55-.799 0-1.32.379-1.61.617v4.48l.797.18c.141.0292.197.0708.197.183 0 .139-.112.351-.141.392h-3.18s-.0133-.0837-.0133-.127c0-.251.168-.363.435-.461l.489-.167v-5.18l-.995-.154s-.0133-.0848-.0133-.141c0-.238.183-.407.519-.433l1.9-.183-.084.98h.0413c.379-.405 1.01-1.06 2.3-1.06 1.37 0 2.13.881 2.13 2.46v3.71" fill="#040606"/><path d="m151 199c-.211-.196-.588-.419-1.17-.419-1.13 0-1.97.811-1.97 2.66 0 1.81.784 2.53 1.72 2.53.813 0 1.25-.377 1.43-.588zm1.41 4.89 1.02.141s.0133.0547.0133.111c0 .252-.181.42-.517.448l-1.85.167v-.908h-.0413c-.308.433-.896.993-1.99.993-1.37 0-2.66-.881-2.66-3.32 0-2.6 1.82-3.78 3.61-3.78.407 0 .757.0677.995.125v-2.45l-.995-.139s-.012-.0975-.012-.155c0-.237.181-.405.517-.433l1.9-.181v9.38" fill="#040606"/><path d="m159 201c.028-.126.0693-.364.0693-.602 0-.77-.279-1.43-1.09-1.43-.827 0-1.32.657-1.41 2.03zm-2.45.741c.0133 1.74.839 2.55 2.04 2.55.895 0 1.4-.349 1.75-.644.14.112.209.351.209.477 0 .348-.924 1.15-2.48 1.15-1.72 0-3.01-.98-3.01-3.42 0-2.43 1.47-3.68 3.07-3.68 1.58 0 2.38.964 2.38 2.37 0 .364-.0707.853-.168 1.2h-3.79" fill="#040606"/><path d="m165 199c-.153-.112-.504-.28-.924-.28-.461 0-.937.197-.937.784 0 .616.657.98 1.33 1.37.84.504 1.73 1.05 1.73 2.17 0 1.15-.951 2.02-2.49 2.02-.784 0-1.48-.239-1.78-.421-.0573-.348-.0987-.714-.0987-1.08 0-.56.153-.784.575-.784.0693 0 .181.0145.181.0145l.293 1.19c.141.0985.547.28.953.28.685 0 1.12-.266 1.12-.854 0-.603-.672-.938-1.3-1.33-.853-.547-1.71-1.09-1.71-2.3 0-1.09.952-1.82 2.3-1.82.812 0 1.39.28 1.64.516.028.197.056.491.056.771 0 .491-.0973.812-.601.812-.0707 0-.168-.0147-.168-.0147l-.168-1.05" fill="#040606"/><path d="m171 199h-1.92v4.09c0 .631.195 1.15.896 1.15.545 0 .993-.239 1.11-.336.0707.112.127.321.127.46 0 .141-.491.798-1.77.798-1.27 0-1.78-.743-1.78-1.82v-4.34h-1.05s-.0133-.0855-.0133-.127c0-.265.168-.419.433-.475l.685-.168.323-1.89h1.04v1.89h2.07l-.156.769" fill="#040606"/><path d="m175 202c-1.13.0563-1.78.463-1.78 1.2 0 .588.336.98.911.98.575 0 1.01-.378 1.19-.602v-1.6zm1.74 1.53c0 .56.209.728.448.728.321 0 .489-.168.532-.239.0693.0973.167.295.167.42 0 .182-.363.728-1.27.728-.644 0-1.05-.281-1.17-.98h-.0293c-.153.265-.672 1.01-1.83 1.01-1.06 0-1.82-.728-1.82-1.83 0-1.5 1.64-2.06 3.21-2.06h.365v-.629c0-1.27-.336-1.78-1.21-1.78-.321 0-.601.0984-.713.14-.127.266-.239.756-.308 1.23 0 0-.211.0131-.323.0131-.475 0-.74-.224-.74-.658 0-.867 1.15-1.52 2.45-1.52 1.54 0 2.25.84 2.25 2.42v3.01" fill="#040606"/><path d="m180 200c0 1.11.56 1.54 1.26 1.54.755 0 1.3-.433 1.3-1.54 0-.995-.548-1.5-1.28-1.5-.727 0-1.29.42-1.29 1.5zm.616 4.62c-.196 0-.364-.0145-.517-.028-.365.211-.603.56-.603 1.04 0 .728.448 1.19 1.47 1.19 1.36 0 2.2-.63 2.2-1.37 0-.575-.323-.825-1.04-.825zm4.03-5.91h-1.13c.268.351.436.77.436 1.27 0 1.48-1.23 2.32-2.76 2.32-.237 0-.448-.0281-.657-.0692-.196.112-.392.307-.392.628 0 .336.224.492.7.492h1.62c1.29 0 2.02.587 2.02 1.59 0 1.4-1.37 2.69-3.74 2.69-1.72 0-2.56-.603-2.56-1.62 0-.98.771-1.44 1.27-1.6v-.0265c-.363-.196-.573-.532-.573-.98 0-.812.741-1.19 1.01-1.33v-.028c-.784-.351-1.29-1.06-1.29-2.07 0-1.47 1.23-2.24 2.66-2.24.377 0 .743.0557 1.09.168h2.45l-.155.796" fill="#040606"/><path d="m189 201c.028-.126.0707-.364.0707-.602 0-.77-.281-1.43-1.09-1.43-.825 0-1.32.657-1.41 2.03zm-2.45.741c.0147 1.74.841 2.55 2.04 2.55.896 0 1.4-.349 1.75-.644.139.112.209.351.209.477 0 .348-.923 1.15-2.48 1.15-1.72 0-3.01-.98-3.01-3.42 0-2.43 1.47-3.68 3.07-3.68 1.58 0 2.38.964 2.38 2.37 0 .364-.0707.853-.168 1.2h-3.79" fill="#040606"/><path d="m195 199c-.153-.112-.504-.28-.924-.28-.461 0-.939.197-.939.784 0 .616.659.98 1.33 1.37.839.504 1.73 1.05 1.73 2.17 0 1.15-.952 2.02-2.49 2.02-.784 0-1.48-.239-1.78-.421-.0573-.348-.0987-.714-.0987-1.08 0-.56.153-.784.575-.784.0693 0 .181.0145.181.0145l.293 1.19c.141.0985.547.28.953.28.685 0 1.12-.266 1.12-.854 0-.603-.672-.938-1.3-1.33-.853-.547-1.71-1.09-1.71-2.3 0-1.09.952-1.82 2.3-1.82.812 0 1.39.28 1.64.516.028.197.056.491.056.771 0 .491-.0973.812-.601.812-.0707 0-.168-.0147-.168-.0147l-.168-1.05" fill="#040606"/><g transform="matrix(.133 0 0 -.133 0 234)"><g clip-path="url(#b)"><path d="m2063 1291c.71.21 1.64.49 2.98.9 5.67 1.66 9.49 1.88 11.1 1.88h.82s-7.55-2.38-8.25-3.74c-.15-.46-.08-.68.36-.68.78 0 2.74.74 6.29 2.04 5.76 1.99 38.2 6.54 49.9 7.02 6.6.03 9.48.27 11.2.28h.27c1.22-.01 1.91-.14 3.15-.57 2.75-.94-.42-1.3 2.39-1.3.39 0 .95 0 1.66.04 4.87 0 6.98.19 8.85.19.26 0 .52 0 .78-.01 2.14-.09 3.1-1.24-2.65-1.76-5.98-.6-6.21-1.51-6.67-2.63-.22-1.11-2.57-2.37-7.3-3.93-4.88-1.62-7.51-2.02-6.01-3.29 1.65-1.3-1.11-2.24-2.64-3.27-1.72-1-.3-2.58-9.29-3.05-9.08-.59-14.8-1.2-16.2-3.13-1.57-1.97-5.4-1.01-9.93-2.28-4.3-1.24-13.1-9.57-15.9-11-1.61-.81-4.31-2-6.86-2-2.01 0-3.9.75-5.02 3.01-2.42 4.75-3.54 8.49 2.07 10.9 5.66 2.33 8.63 2.39 5.2 4.28-3.24 1.74-3.16.21-1.59 2.67 1.29 1.9 2.12 3.15-.21 3.15-.62 0-1.48-.06-2.58-.27-3.83-.69-9.02-2.17-11.4-2.17-.8 0-1.32.17-1.33.6-.16 1.62.5 1.71.69 2.82.16.53.03.87-.48.87-.47 0-1.26-.31-2.48-1.08-2.42-1.6-8.52-4.94-13.4-6.95-4.81-2.09-8.81-3.49-7.31-3.92 1.26-.36.59-2.24 3.41-2.24.55 0 1.25.08 2.11.27 1.98.3 3.49.46 4.51.46 1.74 0 2.07-.49.72-1.71-1.7-1.57-1.84-2.86.47-2.86.28 0 .61.04.99.07.48.06.88.09 1.22.09 1.94 0 1.56-.65 1.56-.65s-2-2.31-6.08-3.31c-.76-.21-1.4-.27-1.88-.27-.85 0-1.35.18-1.74.37-.37.2-.58.4-.76.4-.13 0-.25-.12-.39-.43-.78-1.48-2.74-5.03-2.74-5.03-2.08-1.3-2.08-1.3-4.17-2.61-.1-1.02-.1-1.02-.16-2.02 0 0-2.83-.66-5.21-.66-1.73 0-3.21.35-3.26 1.49 0 2.56-.2 3.61 4.11 5.84 4.53 2.31 7.07 3.02 4.23 3.58-2.41.71-.65 2.1-2.46 2.1h-.07c-2.16-.22-6.11-.07-9.62-3.8-3.5-3.98-3.5-4.32-7.65-6.34-4.3-2.25-6.76-3.01-5.01-3.1 1.6-.29 3.05-1.12 3.05-1.12s-2.04-1.11-6.36-2.67c-4.23-1.68-4.82-.39-9.11-3.75-4.07-3.3-7.58-5.96-11-9.02-3.2-3.01-4.54-4.43-2.6-5.06 2.19-.82 5.06-2.34 5.14-3.55.2-.88-.08-5.77.39-5.77.07 0 .23.25.42.83.91 3.06 5.07 8.03 8.45 10.3 3.24 2.01 7.38 4.32 7.11 6.16-.21 1.74-1.46.7 1.61 3.84 3.18 3.12 2.26 4.17 5.75 5.96 2.64 1.39 5.12 2.9 7.03 2.9.71 0 1.31-.21 1.85-.71 1.65-1.7.23-4.59 1.44-4.59.26 0 .63.14 1.16.41 2.95 1.53 4.38 3.6 5.92 3.6.09 0 .16 0 .23-.01 1.86-.23 5 .44 4.12-2.59-.73-3.04-2.65-6.11 2.13-7.56 4.99-1.57-.19-6.82-.77-8.46-.58-1.6-2.65-3.52-.39-3.52h.26c.06.02.15.02.21.02 2.6 0 2.95-2.84.93-4.21-2.09-1.42-4.65-3.34-8.29-3.34-.15 0-.34 0-.5.02-3.9.07-5.2 1.88-1.75 4.61 2.99 2.38 6.23 6.26 4.84 6.26-.22 0-.59-.09-1.06-.32-3.61-1.77-3.85-4.66-11.4-5.41-7.15-.71-11.6-1.07-9.65-2.54 2.01-1.54 6.03-.24 4.42-2.65-1.32-2.04-3.4-6.7-1.35-6.7.42 0 1.01.2 1.79.65 1.22.65 2.13.91 2.72.91 1.73 0 .92-2.15-2.08-3.35-3.96-1.57-4.81-1.48-7.54-4.29-1-1.03-1.74-1.42-2.32-1.42-.95 0-1.4 1.05-1.93 1.94-.14.38-.53.56-1.06.56-1.7 0-5.02-1.84-7.87-5-3.52-4.01-1.56-5.49-5.12-8.31-.75-.58-1.3-.77-1.74-.77-.55 0-.94.33-1.27.66-.34.35-.66.67-1.12.67-.38 0-.87-.26-1.56-1.05-2.68-3.11-3.9-6.77-6.81-8.61-2.78-1.82-3.29-4.23-2.53-5.8.93-1.42-2.1-4.17-6.37-8.15-4.04-3.72-9.43-6.82-10.9-14.4-1.37-7.83-2.66-14.3-2.66-14.3s-.37-.28-.84-.28c-.75 0-1.79.76-2.09 4.6-.28 5.48-.27 7.95-2.34 7.95-.24 0-.52-.03-.83-.1-2.65-.39-3.28-3.02-3.28-3.02-1.28-.99-1.28-.99-2.46-1.64 0 0 .67 1.59-.04 1.59-.18 0-.48-.13-.9-.42-1.89-1.17-3.72-2.59-5.65-4.96-1.83-2.37-3.57-4.84-5.13-13.5-1.28-8.55-1.87-11.6-.03-11.7h.05c1.99 0 3.83 5.41 6.19 6.61 1.17.5 2.09.65 2.69.65.76 0 1.12-.2 1.12-.2s-3.48-7.37-3.81-11.1c-.2-2.74-.09-4.65 1.01-4.65.33 0 .75.17 1.25.54.56.37 1.05.54 1.49.54 1.33 0 2-1.84 1.6-5.96-.45-5.58-1.95-7.88.12-9.89 1.87-1.9 3.71-6.56 5.13-6.84l-.33.85s1.02 1.45 1.96 1.45c.3 0 .63-.18.88-.66.46-.72.8-1.11 1.04-1.11.31 0 .45.73.45 2.39.12 2.87.81 1.71 4.08 3.35 3.41 1.6 4.36 4.85 6.2 5.03 1.9-.03 1.06-7.56 1.06-7.56s1.99 4.07 3.13 5.69c.2.25.42.36.63.36 1.12 0 2.72-2.75 5.49-5.42 1.18-1.15 1.9-1.59 2.46-1.59 1.05 0 1.52 1.6 3.43 3.36 1.23 1.07 2.61 1.64 3.87 1.64 1.73 0 3.24-1.08 3.91-3.41 1.22-4.03 1.72-4.96 5.28-9.69 3.69-4.99 6.65-3.09 14.3-5.65 7.98-2.7 7.77-8.98 10.1-14 2.47-4.95-.99-7.14 2.27-9.83 3.31-2.76 6.45.52 13-5.66 6.58-6.13 18.8-4.55 27.7-12.4 9.02-7.88-1.82-21-5.02-26.9-3.13-5.85 1.85-14.4-.89-20.6-2.63-6.14-1.92-11.2-4.9-13.7-3.12-2.25-9.82-1.9-13.3-4.35-3.32-2.41-2.89-6.32-5.81-16-1.99-6.9-5.95-9.42-8.56-9.42-.85 0-1.54.246-1.99.711-.34.34-.62.492-.77.492-.64 0 .08-2.43 2.03-6.1 1.84-3.52 1.06-5.32-1.29-5.32-.66 0-1.42.121-2.29.418-.55.172-1 .266-1.4.266-2.34 0-1.87-3.05-1.47-4.41.09-.321-.02-.446-.21-.446-.25 0-.71.184-1.19.399-.5.218-1.03.422-1.45.422-.15 0-.31-.02-.43-.094-1.18-.356 1.88-3.38 2.82-5.14.91-1.67-.5-4.67 1.11-6.33 1.6-1.72 5.52-5.86 4.22-6.55-1.28-.648-1.52-.586.32-3.14 1.85-2.44 13.6-9.91 14-10.2-.51.16-7.92 2.36-12.4 5.53-4.56 3.27-9.28 6.39-12.6 8.89-3.25 2.56-8.41 9.44-8.31 12.1.24 2.65-1.38 3.12-5.97 8.41-4.5 5.32-12.9 30.2-16.8 45.9-3.37 16.5-1.83 16.4-7.38 21.8-5.24 5.34-6.84 7.26-13 17.6-5.69 10.1-9.75 27.2-9.56 28.8.22 1.65.32 3.04-.71 6.14-.99 2.9.06 4.98.86 6.67.76 1.68 3.14 10.2 3.65 16.1.34 3.92-.92 7.56-1.79 9.77-.09-2.32-.32-6.73-.98-6.73-.1 0-.24.16-.4.49-1.15 2.32-2.43 3.18-5.36 6.46-2.73 3.36-1.96 2.47-3.22 7.68-1.15 5.04-2.57 3.09-5.39 5.84-2.5 2.59-1.88 3.19-2.59 5.43-.7 2.04-7.5 1.11-7.67 6.73 0 .06-.02.11-.02.15-2.51-13.5-3.83-27.5-3.83-41.8 0-126 102-228 228-228s228 102 228 228c0 33.8-7.37 66-20.6 94.8.09-.25.19-.5.3-.78l.45-1.08c.5-1.13.95-2.29 1.41-3.53l.55-1.37c.43-1.19.87-2.35 1.28-3.51l.65-1.82c.41-1 .77-2.08 1.11-3.18l.54-1.53c.31-1.07.69-2.23 1.03-3.31.26-.76.46-1.53.69-2.23.3-1 .62-2.11.9-3.1.17-.68.38-1.34.56-2.02.26-.9.46-1.84.7-2.76.25-.93.45-1.83.71-2.72.2-.71.31-1.41.51-2.07.25-1.05.54-2.19.73-3.27l.28-1.33c.32-1.59.66-3.08.93-4.69l.18-.99c.24-1.29.52-2.59.72-3.86l.18-1.42.21-1.1.05-.35c.15-.69.22-1.31.29-1.94v-.03l.03-.18v-.01l.08-.54c-.13-1.16-.23-2.53-.25-4.09-.29-6.27-.2-8.52.14-12.7.37-4.48.03-6.47.75-7.95.38-.87.58-1.93.61-3.01v-.39c0-.43-.04-.86-.11-1.29-.15-.68-.38-1.24-.66-1.24-.38 0-.85.93-1.32 3.65-1.03 5.24-2.84 14-4.06 18-1.31 3.99-3.4 10.5-3.77 16.3-.39 4.71-.84 6.79-1.26 6.79-.07 0-.15-.08-.21-.24-.45-1-.64-3.23-.64-3.23s-2.27 3.47-5.5 9.29c-3.48 5.8-1.86 5.15-5.25 6.63-3.65 1.3-5.59.73-13 6.82-7.97 6.23-9.53 8.31-12.3 10.2-1.94 1.31-4.26 3.46-4.84 3.46-.33 0-.14-.66.92-2.44 2.88-4.9 5.86-7.58 7.86-11.7 1.45-3.07 2.62-5.12 3.42-5.12.34 0 .62.34.81 1.11.32 1.05 1.25 1.64 2.42 1.64 1.59 0 3.65-1.09 5.25-3.59 2.7-4.38 4.03-7.17 2.17-11.5-2.02-4.52-.84-6.89-3.92-10.2-3.28-3.33-6.59-5.58-6.59-5.58s-.2.12-.67.12c-.89 0-2.59-.34-5.3-2.23-1.86-1.26-3.47-2.51-5.09-2.51-2.2 0-4.46 2.27-7.58 9.83-5.77 13.3-4.7 4.73-9 14-4.49 9.23-5.81 14.7-9.24 19.5-2.8 3.86-4.18 7.69-5.5 7.69-.34 0-.68-.28-1.07-.9-1.69-3.05 3.2-9.41 5.23-13.9 2-4.47 3.25-6.15 5.04-11.9 1.77-5.87 12-22.2 14.3-25.7 1.88-3.04 3.37-7.01 7.1-7.01.59 0 1.21.1 1.89.32 2.73.77 5.49 2.16 7.37 2.16 1.49 0 2.43-.87 2.43-3.55-.05-6.24-2.71-15.5-8.47-29.5-6.39-14.7-12.9-26.2-13.7-34.6-.9-8.18-.4-19.8-3.78-24.7-3.32-4.72-9.25-7.43-12.5-12.5-3.29-5.08-2.41-12.2-5.25-17.6-2.95-5.38-3.95-2.4-5.87-6.18-1.94-3.79-2.19-8.64-5.66-11.7-3.63-3.15-7.4-10.5-15.6-13.7-6.62-2.47-13-3.15-16-3.15-.81 0-1.37.043-1.7.101-1.51.375-4.73-1.04-5.22 5.33-.48 6.68-6.6 14-7.08 20.1-.54 6.32-1.75 13-4.14 17.9-2.54 4.8-3.42 15 .76 22.1 4.19 7.25 4.19 27.3-1.71 35.6-5.96 8.36-6.32 10.1-6.27 17.2.09 7.01.11 12.3-5 14.9-1.82.89-3.13 1.06-4.29 1.06-.34 0-.66-.01-1-.03-.32-.01-.64-.03-.97-.03-1.39 0-2.9.26-5.17 1.93-3.01 2.15-5.02 3.16-7.1 3.16-1.58 0-3.16-.56-5.27-1.66-2.93-1.59-10.2-3.89-18.1-3.89-5.18 0-10.7 1-15.4 3.89-11.9 7.21-22.6 14.8-24.5 24.2-1.88 9.36.45 17.2.12 24.3-.35 7.02-4.83 15.7 5.07 25.9 9.77 9.9 17.9 10.6 18 17.2-.13 6.57-1.2 8.24 3.97 10.9 5.09 2.57 7 2.57 7.63 6.17.69 3.59.61 3.98.61 3.98s-1.75-.83-3.56-.83c-1.93 0-3.93.95-3.81 4.85.33 7.29-1.96 14.5.54 16 2.49 1.44 5.38 2.25 13.2 2.38h1.31 1.64c5.38 0 7.31.25 5.87 5.88-1.67 6.39-5.47 4.86-7.01 7.21-.4.62-.45.76-.18.76.14 0 .35-.04.63-.07.27-.02.59-.05 1.01-.05 1.63 0 4.37.44 8.32 3.12 8.17 5.1 12.4 8.49 17.6 9.09 5.01.55 7.58.82 5.35 3.96-2.29 3.12-3.61 3.22-1.15 4.16 2.29.97-2.57-.69-5.32 4.25-2.85 4.69-2.75 6.42 1.83 8.29 4.52 1.68 14.1 8.8 20.4 8.8.15 0 .3 0 .46-.02 6.16-.53 18.4-2.78 28-7.53 9.45-4.97 12.4-6.81 14.2-7.53 1.42-.54 4.01-2.53 4.57-2.53.22 0 .11.33-.52 1.23-1.46 2.05-2.17 3.18-1.69 3.18.19 0 .53-.19 1.11-.53 1.8-1.14 1.8-3.3 3.13-3.3h.15c1.43.21 2.65.73 2.65.73s2.92-.11 5.36-1.27c2.45-1.19 2.17-.57 3.77-1.68.88-.62 2.67-1.39 3.81-1.7-3.45 2.72-7 5.35-10.6 7.87.23-.57.67-.96 1.17-1.47.53-.6.19-.63.12-.63h-.02c-.41.19-4.96 1.82-5.81 2.61-.6.54-1.74 2.5-.68 3.07-36 23.7-79 37.5-125 37.5-27.5 0-53.9-4.89-78.4-13.8m74-13.6c.5.29 1.35.46 2.3.46 1.16 0 2.46-.28 3.33-.88 1.52-1.13.75-.94 4.01-1.9 3.17-1.02-1.98-1.65-5.2-2.32-2.67-.59-4.42-1.85-8.26-1.85-.53 0-1.1.04-1.73.1-5.04.27-6.27 3.87-6.27 3.87.38.1 1.37 2.33 2.88 2.61.2.03.38.03.53.03 1.16 0 1.87-.8 4.81-1.45.69-.15 1.22-.24 1.6-.24 1.4 0 1.1.96 2 1.57m25-37.6s4.71.44 3.26 3.28c-1.44 2.83-1.14.65.75 3.9 1.89 3.22 3.06 1.97 1.1 4.56-1.85 2.47-4.92 7.1-.72 7.67.44.05.84.07 1.21.07 3.38 0 5.05-1.82 5.72-3.64.62-1.99 4.41-4.84 6.06-6.23 1.56-1.39 1.79-3.72 1.17-4.84-.8-1.12-3.03-3.4-6.02-3.43-3.13-.1-6.63-.75-7.62-1.72-.25-.26-.73-.35-1.26-.35-1.53 0-3.65.73-3.65.73m-12.6 5.24c-1.62.45-.85 2.39.77 4.49 1.44 2.09 1.9 1.11 3.69 2.41.63.5 1.01.74 1.44.74.69 0 1.48-.62 3.54-1.83 3.45-2 1.13-3.26-2.09-5.33-2.87-1.83-2.76-2.26-2.66-2.32-.41.26-3.16 1.44-4.69 1.84m4.69-1.84v-.03.03m-147 17.8v-.21c.03-.21.16-.27.37-.27.15 0 .34.06.55.09.18.06.39.09.55.09.18 0 .32-.05.29-.34-.29-1.07-.27-1.49-.27-1.49s4.68 2.03 4.41 3.17c-.07 1.27.1 2.52 2.05 4 1.87 1.49 2.22.99 3.71 2.66.21.23.39.43.53.6-4.16-2.64-8.22-5.42-12.2-8.3m219 4.4c-.99-1.66-4.28-.31-6.24-1.71-2.17-1.46 1.18-2.15 2.82-3.7 1.45-1.54 1.31-3.93-.46-4.47-1.75-.53-3.03-.22-3.66-2.07-.73-1.87-2.37-2.42-6.02-2.96-.21-.03-.4-.05-.57-.05-3.26 0-3.64 4.95-4.87 6.58-1.01 1.34-1.67 1.43-2.76 1.43h-.24-.25-.56c-.11 0-.2.02-.29.02-1.48 0-1.9-.87-1.2-1.91.37-.54.48-.58.78-.58h.14.18c.44 0 1.15-.06 2.45-.46 2.98-.99 2.92-5.77 3.41-6.98 0 0 3.38-.34 8.07-.86 4.77-.59 8.54-.44 12.4-.71.22-.02.4-.02.57-.02 2.83 0 .16 1.63 2.01 3.49 1.76 2.03 2.66.79 3.38 1.64.7.89.61 1.53-1.23 4.15-1.77 2.53-3.84 3.24-6.21 6.08-2.18 2.72 1.97 2.1 3.6 3.12 1.43 1.02-.34 1.11-2.79 2.1-.53.2-.91.27-1.15.27-1.02 0-.49-1.21-1.27-2.4m-228-10.9c.5.25 1.08.65 1.52 1.21-.52-.4-1.02-.82-1.52-1.21m218-33.1c2.76-2.78 5.67-5.68 9.93-9.32 4.26-3.79 5.3-2.94 3.82-6.14-1.69-3.24-3.19-4.28-2.95-5.15.04-.1.04-.16-.01-.16-.46 0-3.51 3.11-6.13 6.12-3.03 3.42-7.05 7.7-10.2 9.25-2.97 1.48-3.37 4.03-5.47 4.03-.15 0-.37-.02-.59-.08-2.66-.48-1-.74-4.96-.74-2.61.08-5.51 1.17-7.83 1.17-1.33 0-2.44-.37-3.15-1.54-1.83-3.28-6.08-5.37-8.37-7.12-2.34-1.71-2.56-5.93-3.18-7.3-.47-1.39-4.39-4.16-5.63-4.59-1.37-.45-2.97-1.86-2.97-1.86s-.79.65-1.78.65c-.61 0-1.31-.25-1.91-1.07-1.44-1.99-2.23-3.4.26-3.4h.57c.66.04 1.42.04 2.19.04h.12c3.25 0 7.21.01 9.24 2.05 2 1.98 2.4 2.75 8.11 2.75 1.76 0 3.98-.08 6.89-.2 1.12-.07 2.16-.09 3.12-.09 2.57 0 4.75.17 6.62.32 1.85.18 3.39.34 4.64.34 2.38 0 3.75-.57 4.62-2.82 1.77-5.05-1.97-10 3.19-10.7 5.17-.82 7.04-3.3 12-6.37 3.87-2.37 5.61-4.76 7.93-4.76.63 0 1.31.19 2.07.6 3.53 1.92 1.2 6.48 4.53 6.48h.04c3.32 0 6.39-2.06 12-4.23 4.13-1.63 13.2-4.44 18.8-4.44 1.88 0 3.38.33 4.16 1.14 3.05 2.97 6.48 6.41 4.32 11.6-1.57 3.79-3.5 5.91-4.62 5.91-.36 0-.65-.23-.79-.73-.34-1.39-1.04-2.68-2.17-2.68-.58 0-1.28.36-2.13 1.23-1.31 1.39-2 1.89-2.46 1.89-.48 0-.78-.4-1.31-.84-.47-.4-.98-.55-1.55-.55-.88 0-1.85.43-2.63 1.06-1.23 1.1-4.95 4.45-5.5 7.12-.63 2.76-2.49 2.1-4.17 4.75-1.34 2.04-1.73 3.69-2.94 3.69-.32 0-.68-.11-1.13-.33-2.06-1.32-4.28.29-3-2.59 1.22-2.73 2.87-1.14 2.73-3.79-.13-2.69-2.84-3.65-2.6-5.37.02-.27-.04-.38-.23-.38-.9 0-4.28 3.32-5.52 5.59-1.4 2.53-6.27 8.36-7.26 11.1-.99 2.68-6.4 8.59-11.9 10.7-2.85 1.05-4.76 1.72-5.56 1.72-.72 0-.52-.56.71-1.89m40.2-5.51c-.98-3.78-.85-9.17 2.37-9.17.14 0 .27.02.43.03 2.13.39 3.15 1.27 5.07 1.27 1.2 0 2.74-.34 5.1-1.38 6.03-2.68 4.08-4.88 10.3-5.09.9-.06 1.78-.09 2.54-.09 4.04 0 5.42.99 2.56 4.82-3.57 4.6-4.92 2.22-7.51 7.4-1.96 3.92-1.61 6.33-2.62 6.33-.26 0-.65-.18-1.17-.54-2.71-1.65-1.03-3.6-2.32-4.61-.91-.56-1.63-1.67-2.57-1.67-.54 0-1.15.34-1.91 1.32-2.09 2.75-3.15 5.66-5.08 6.27-1.82.41-2.06.43-2.06.43s-2.03-1.51-3.09-5.32" fill="url(#a)"/></g></g><path d="m335 78.8-4.5-6.86v6.86h-1.48v-9.74h1.35l4.5 6.84v-6.84h1.48v9.74h-1.35" fill="#040606"/><path d="m342 71.3-1.52 4.33h3zm2.56 7.54-.671-1.96h-3.85l-.671 1.96h-1.57l3.57-9.74h1.19l3.57 9.74h-1.57" fill="#040606"/><path d="m350 70.4v8.42h-1.48v-8.42h-2.68v-1.33h6.84v1.33h-2.68" fill="#040606"/><path d="m355 78.8v-9.74h1.48v9.74h-1.48" fill="#040606"/><path d="m363 70.9c-.343-.369-.876-.601-1.45-.601-.575 0-1.11.232-1.45.601-.48.521-.576 1.07-.576 3.03 0 1.96.096 2.5.576 3.02.341.369.876.603 1.45.603.575 0 1.11-.233 1.45-.603.479-.52.573-1.07.573-3.02 0-1.96-.0947-2.5-.573-3.03zm1.12 6.94c-.671.669-1.53 1.04-2.57 1.04s-1.89-.369-2.56-1.04c-.957-.959-.944-2.04-.944-3.91 0-1.87-.0133-2.96.944-3.91.671-.669 1.52-1.04 2.56-1.04s1.9.369 2.57 1.04c.957.959.931 2.04.931 3.91 0 1.87.0267 2.96-.931 3.91" fill="#040606"/><path d="m374 78.8-4.5-6.86v6.86h-1.48v-9.74h1.35l4.5 6.84v-6.84h1.48v9.74h-1.35" fill="#040606"/><path d="m381 71.3-1.52 4.33h3zm2.56 7.54-.671-1.96h-3.85l-.671 1.96h-1.57l3.57-9.74h1.19l3.57 9.74h-1.57" fill="#040606"/><path d="m387 78.8v-9.74h1.48v8.42h4.69v1.33h-6.17" fill="#040606"/><path d="m395 78.8v-9.74h6.23v1.33h-4.75v2.85h4.05v1.31h-4.05v2.93h4.75v1.33h-6.23" fill="#040606"/><path d="m335 95.3-2.74-4.8-1.64 1.97v2.83h-1.48v-9.74h1.48v4.9l3.98-4.9h1.81l-3.16 3.82 3.49 5.93h-1.74" fill="#040606"/><path d="m338 95.3v-9.74h1.48v8.42h4.69v1.33h-6.17" fill="#040606"/><path d="m346 95.3v-9.74h1.48v9.74h-1.48" fill="#040606"/><path d="m357 95.3v-6.51l-2.24 4.75h-1.09l-2.3-4.75v6.51h-1.48v-9.74h1.48l2.85 6.06 2.79-6.06h1.48v9.74h-1.48" fill="#040606"/><path d="m365 87.7-1.52 4.33h3zm2.56 7.54-.671-1.96h-3.84l-.671 1.96h-1.57l3.57-9.74h1.19l3.57 9.74h-1.57" fill="#040606"/><path d="m373 95.3c-1.47 0-2.52-.341-3.45-1.29l.985-.971c.712.711 1.49.931 2.49.931 1.27 0 2.01-.548 2.01-1.49 0-.424-.123-.781-.383-1.01-.247-.232-.493-.328-1.07-.411l-1.15-.164c-.793-.109-1.42-.384-1.85-.78-.479-.452-.712-1.07-.712-1.86 0-1.7 1.23-2.86 3.26-2.86 1.29 0 2.19.328 3.02 1.11l-.944.931c-.603-.575-1.3-.752-2.12-.752-1.15 0-1.78.656-1.78 1.52 0 .356.109.671.369.904.247.217.644.383 1.1.451l1.11.164c.904.137 1.41.356 1.82.727.535.465.795 1.16.795 2 0 1.79-1.47 2.86-3.5 2.86" fill="#040606"/><path d="m382 95.3c-1.01 0-1.89-.369-2.56-1.04-.957-.957-.944-2.04-.944-3.91 0-1.87-.0133-2.96.944-3.91.671-.671 1.55-1.04 2.56-1.04 1.79 0 3.13 1.05 3.48 3h-1.51c-.232-.985-.889-1.67-1.97-1.67-.575 0-1.09.22-1.44.589-.479.52-.589 1.08-.589 3.04 0 1.96.111 2.52.589 3.04.343.369.863.589 1.44.589 1.08 0 1.75-.685 1.98-1.67h1.49c-.328 1.94-1.71 3-3.48 3" fill="#040606"/><path d="m393 95.3v-4.26h-3.96v4.26h-1.48v-9.74h1.48v4.16h3.96v-4.16h1.48v9.74h-1.48" fill="#040606"/><path d="m400 95.3c-1.99 0-3.49-1.35-3.49-3.37v-6.46h1.48v6.39c0 1.3.795 2.11 2.01 2.11 1.22 0 2.03-.808 2.03-2.11v-6.39h1.48v6.46c0 2.01-1.52 3.37-3.5 3.37" fill="#040606"/><path d="m410 86.8v8.42h-1.48v-8.42h-2.68v-1.33h6.84v1.33h-2.68" fill="#040606"/><path d="m414 95.3v-1.27l4.5-7.14h-4.31v-1.33h6.05v1.2l-4.53 7.21h4.53v1.33h-6.24" fill="#040606"/><path d="m329 112v-9.74h1.48v9.74h-1.48" fill="#040606"/><path d="m339 112-4.5-6.86v6.86h-1.48v-9.74h1.35l4.5 6.84v-6.84h1.48v9.74h-1.35" fill="#040606"/><path d="m343 112v-9.74h1.48v9.74h-1.48" fill="#040606"/><path d="m350 103v8.42h-1.48v-8.42h-2.68v-1.33h6.84v1.33h-2.68" fill="#040606"/><path d="m355 112v-9.74h1.48v9.74h-1.48" fill="#040606"/><path d="m362 104-1.52 4.32h3zm2.56 7.54-.671-1.96h-3.85l-.671 1.96h-1.57l3.57-9.74h1.19l3.57 9.74h-1.57" fill="#040606"/><path d="m370 103v8.42h-1.48v-8.42h-2.68v-1.33h6.84v1.33h-2.68" fill="#040606"/><path d="m375 112v-9.74h1.48v9.74h-1.48" fill="#040606"/><path d="m382 112h-1.15l-3.2-9.74h1.53l2.25 7.09 2.24-7.09h1.56l-3.23 9.74" fill="#040606"/><path d="m387 112v-9.74h6.23v1.33h-4.75v2.85h4.05v1.31h-4.05v2.93h4.75v1.33h-6.23" fill="#040606"/></svg>
