<?xml version="1.0" encoding="UTF-8"?>
<svg id="Ebene_1" data-name="Ebene 1" xmlns="http://www.w3.org/2000/svg" xmlns:xlink="http://www.w3.org/1999/xlink" viewBox="0 0 320.29 271.66">
  <defs>
    <style>
      .cls-1 {
        clip-path: url(#clippath);
      }

      .cls-2 {
        fill: none;
      }

      .cls-3 {
        fill: #ffed00;
      }

      .cls-4 {
        fill: #1d1d1b;
      }
    </style>
    <clipPath id="clippath">
      <rect class="cls-2" width="320.29" height="271.66"/>
    </clipPath>
  </defs>
  <rect class="cls-3" x="-17.55" y="96.72" width="260.96" height="78.22" transform="translate(-54.35 192.58) rotate(-69)"/>
  <g class="cls-1">
    <path class="cls-4" d="m188.04,179.27h-5.86l-2.5,35.36-1.25-9.98-2.12-11.1h-5.05l-2.12,11.1-1.25,9.98-2.49-35.36h-5.86l4.18,44.4h5.86l4.18-19.64,4.18,19.64h5.86l4.24-44.4Zm-40.53,36.42c0,1.25-.87,2.12-2.06,2.12h-8.79v-14.22h8.79c1.19,0,2.06.87,2.06,2.06v10.04Zm0-20.08c0,1.18-.87,2.12-2.06,2.12h-8.79v-12.6h8.79c1.19,0,2.06.93,2.06,2.12v8.36Zm5.86,19.71v-9.67c0-1.43-.44-4.36-2.06-4.99,1.62-.69,2.06-3.62,2.06-5.05v-7.92c0-4.86-3.43-8.42-8.29-8.42h-14.28v44.4h14.28c4.86,0,8.29-3.49,8.29-8.36"/>
    <path class="cls-4" d="m320.29,160.16l-10.41-28.06,9.17-16.34h-6.73l-9.98,16.34v-16.34h-5.86v44.4h5.86v-15.09l3.3-5.86,7.55,20.95h7.11Zm-33.63-44.4h-5.86v44.4h5.86v-44.4Zm-38.24,44.4h5.86v-17.46l-1.25-14.34,12.1,31.81h5.86v-44.4h-5.86v17.46l1.25,14.34-12.1-31.8h-5.86v44.4Zm-9.06,0v-44.4h-5.86v18.46h-10.85v-18.46h-5.86v44.4h5.86v-20.08h10.85v20.08h5.86Zm-30.51-11.29h-5.86c0,3.12-2.31,5.43-5.49,5.43s-5.43-2.31-5.43-5.43v-21.76c0-3.18,2.24-5.49,5.43-5.49s5.49,2.31,5.49,5.49h5.86c0-6.61-4.74-11.35-11.35-11.35s-11.29,4.8-11.29,11.35v21.76c0,6.55,4.74,11.29,11.29,11.29s11.35-4.68,11.35-11.29m-28.95,11.29v-5.86h-16.71v-14.22h10.85v-5.86h-10.85v-12.6h16.71v-5.86h-22.57v44.4h22.57Zm-29.08-38.54v-5.86h-22.58v5.86h8.36v38.54h5.86v-38.54h8.36Z"/>
    <path class="cls-4" d="m306.96,58.1v-5.86h-22.57v5.86h8.36v38.54h5.86v-38.54h8.36Zm-20.95,38.54v-5.86h-16.78v-38.54h-5.86v44.4h22.64Zm-30.12,0v-5.86h-16.71v-14.22h10.85v-5.86h-10.85v-12.6h16.71v-5.86h-22.57v44.4h22.57Zm-29.5-44.4h-5.86l-2.5,35.36-1.25-9.98-2.12-11.1h-5.05l-2.12,11.1-1.25,9.98-2.49-35.36h-5.86l4.18,44.4h5.86l4.18-19.64,4.18,19.64h5.86l4.24-44.4Zm-63.92,0v44.4h5.86v-16.15l-1.25-14.97,7.48,25.26h4.24l7.48-25.26-1.25,14.97v16.15h5.86v-44.4h-5.86l-8.36,26.82-8.36-26.82h-5.86Zm-9.1,33.11v-33.11h-5.86v33.11c0,3.12-2.18,5.43-5.42,5.43s-5.43-2.31-5.43-5.43v-33.11h-5.86v33.11c0,6.55,4.74,11.29,11.29,11.29s11.29-4.74,11.29-11.29"/>
  </g>
  <path class="cls-4" d="m76.4,79.85l-.57,12.14-9.77,1.71-.79,2.73h16.44l5.9-12.68-3.14-6.69-8.07,2.79Zm-42.05-27.24l-7.03-.55-11.83,3.65,1.17,5.68,4.01-.89.67,3.29-4.01.88.8,3.91,4.87-1.07-.56,4.23-10.59-1.67-3.85-2.94-6.9,1.79-1.1,3.71,4.46-.12,19.93,13.14-6.45,6.34-9.69,1.81-.78,2.66h19.32l58.59-21.21,6.17,13.13,13.83,3.94v.18l-6.43,1.12-.84,2.84,14.16-.04v-9.93l-7.94-3.72-5.74-15.96,3.66-3.81-6.48-6.72-47.04,1.85-1.86,3.85,47.06-1.94,2.94,3.05-1.46,1.52-51.66,2.02-.07.07-5.6-12.03,1.62-3.62-5.36,1.58Z"/>
  <path class="cls-4" d="m76.4,144.06l-.57,12.14-9.77,1.71-.79,2.73h16.44l5.9-12.68-3.14-6.69-8.07,2.78Zm-42.05-27.24l-7.03-.55-11.83,3.65,1.17,5.68,4.01-.89.67,3.29-4.01.88.8,3.91,4.87-1.07-.56,4.23-10.59-1.67-3.85-2.94-6.9,1.79-1.1,3.71,4.46-.12,19.93,13.14-6.45,6.34-9.69,1.81-.78,2.66h19.32l58.59-21.21,6.17,13.13,13.83,3.94v.18l-6.43,1.12-.84,2.84,14.16-.04v-9.93l-7.94-3.72-5.74-15.95,3.66-3.81-6.48-6.72-47.04,1.85-1.86,3.85,47.06-1.94,2.94,3.05-1.46,1.52-51.66,2.02-.07.07-5.6-12.03,1.62-3.62-5.36,1.58Z"/>
  <path class="cls-4" d="m76.4,207.06l-.57,12.14-9.77,1.71-.79,2.73h16.44l5.9-12.68-3.14-6.69-8.07,2.79Zm-42.05-27.24l-7.03-.55-11.83,3.65,1.17,5.68,4.01-.89.67,3.29-4.01.88.8,3.91,4.87-1.07-.56,4.23-10.59-1.67-3.85-2.94-6.9,1.79-1.1,3.71,4.46-.12,19.93,13.14-6.45,6.34-9.69,1.81-.78,2.66h19.32l58.59-21.21,6.17,13.13,13.83,3.94v.18l-6.43,1.12-.84,2.84,14.16-.04v-9.93l-7.94-3.73-5.74-15.95,3.66-3.81-6.48-6.72-47.04,1.85-1.86,3.85,47.06-1.94,2.94,3.05-1.46,1.52-51.66,2.02-.07.07-5.6-12.03,1.62-3.62-5.36,1.58Z"/>
</svg>